<svg width="153" height="55" viewBox="0 0 153 55" fill="none" xmlns="http://www.w3.org/2000/svg">
<path d="M44 54.9408V51.1741H45.8655C46.11 51.1741 46.3243 51.2243 46.5086 51.3248C46.6963 51.4252 46.8434 51.5651 46.9497 51.7445C47.056 51.9203 47.1091 52.1248 47.1091 52.3579C47.1091 52.5804 47.056 52.7794 46.9497 52.9552C46.8434 53.131 46.6963 53.2691 46.5086 53.3696C46.3208 53.47 46.1064 53.5202 45.8655 53.5202H44.7706V54.9408H44ZM44.7706 52.8745H45.7804C45.947 52.8745 46.0798 52.8279 46.179 52.7346C46.2818 52.6413 46.3332 52.5176 46.3332 52.3633C46.3332 52.2055 46.2818 52.0799 46.179 51.9866C46.0798 51.8934 45.947 51.8467 45.7804 51.8467H44.7706V52.8745Z" fill="white"/>
<path d="M47.7238 54.9408V51.1741H48.4945V54.252H50.53V54.9408H47.7238Z" fill="white"/>
<path d="M50.8892 54.9408L52.4198 51.1741H53.3074L54.8221 54.9408H53.9877L53.6103 53.9507H52.0744L51.6917 54.9408H50.8892ZM52.3135 53.3265H53.3765L52.845 51.9382L52.3135 53.3265Z" fill="white"/>
<path d="M55.2442 54.9408V51.1741H55.9776L57.8272 53.6063V51.1741H58.55V54.9408H57.8697L55.9723 52.4225V54.9408H55.2442Z" fill="white"/>
<path d="M59.3314 54.9408V51.1741H62.1907V51.8521H60.102V52.7131H61.4785V53.3696H60.102V54.2628H62.2119V54.9408H59.3314Z" fill="white"/>
<path d="M64.1228 54.9946C63.7507 54.9946 63.4354 54.8996 63.1767 54.7094C62.9181 54.5193 62.7321 54.2467 62.6187 53.8915L63.3309 53.6171C63.4088 53.8467 63.5116 54.0153 63.6391 54.1229C63.7702 54.2305 63.9314 54.2843 64.1228 54.2843C64.3531 54.2843 64.5373 54.209 64.6755 54.0583C64.8172 53.9077 64.8881 53.7068 64.8881 53.4557V51.1741H65.6587V53.4772C65.6587 53.7821 65.5949 54.0494 65.4674 54.2789C65.3398 54.5049 65.1609 54.6807 64.9306 54.8063C64.7003 54.9318 64.431 54.9946 64.1228 54.9946Z" fill="white"/>
<path d="M65.8624 54.9408L67.3931 51.1741H68.2806L69.7953 54.9408H68.9609L68.5836 53.9507H67.0476L66.6649 54.9408H65.8624ZM67.2868 53.3265H68.3497L67.8182 51.9382L67.2868 53.3265Z" fill="white"/>
<path d="M70.2174 54.9408V51.1741H71.206L72.2264 53.2081L73.2468 51.1741H74.2354V54.9408H73.5073V52.1696L72.2158 54.6718L70.9296 52.1588V54.9408H70.2174Z" fill="white"/>
<path d="M75.0105 54.9408V51.1741H77.8698V51.8521H75.7811V52.7131H77.1576V53.3696H75.7811V54.2628H77.891V54.9408H75.0105Z" fill="white"/>
<path d="M78.5423 54.9408V51.1741H79.2757L81.1252 53.6063V51.1741H81.848V54.9408H81.1677L79.2704 52.4225V54.9408H78.5423Z" fill="white"/>
<path d="M83.6445 54.9408V51.8629H82.3903V51.1741H85.6641V51.8629H84.4152V54.9408H83.6445Z" fill="white"/>
<path d="M87.7973 55C87.521 55 87.2641 54.9516 87.0267 54.8547C86.7893 54.7543 86.5803 54.6162 86.3996 54.4404C86.2224 54.261 86.0825 54.0547 85.9797 53.8216C85.8805 53.5848 85.8309 53.3301 85.8309 53.0575C85.8309 52.7848 85.8805 52.5319 85.9797 52.2987C86.0825 52.062 86.2224 51.8557 86.3996 51.6799C86.5803 51.5006 86.7893 51.3625 87.0267 51.2656C87.2641 51.1652 87.521 51.1149 87.7973 51.1149C88.0737 51.1149 88.3306 51.1652 88.568 51.2656C88.8089 51.3625 89.018 51.5006 89.1951 51.6799C89.3758 51.8557 89.5158 52.062 89.615 52.2987C89.7142 52.5319 89.7638 52.7848 89.7638 53.0575C89.7638 53.3301 89.7142 53.5848 89.615 53.8216C89.5158 54.0547 89.3758 54.261 89.1951 54.4404C89.018 54.6162 88.8089 54.7543 88.568 54.8547C88.3306 54.9516 88.0737 55 87.7973 55ZM87.7973 54.2843C87.9674 54.2843 88.1233 54.2538 88.265 54.1929C88.4068 54.1283 88.5308 54.0422 88.6371 53.9346C88.7434 53.8234 88.8266 53.6924 88.8869 53.5418C88.9471 53.3911 88.9772 53.2297 88.9772 53.0575C88.9772 52.8817 88.9471 52.7203 88.8869 52.5732C88.8266 52.4225 88.7434 52.2934 88.6371 52.1857C88.5308 52.0745 88.4068 51.9884 88.265 51.9275C88.1233 51.8629 87.9674 51.8306 87.7973 51.8306C87.6308 51.8306 87.4767 51.8629 87.335 51.9275C87.1932 51.9884 87.0692 52.0745 86.9629 52.1857C86.8566 52.2934 86.7734 52.4225 86.7131 52.5732C86.6529 52.7203 86.6228 52.8799 86.6228 53.0521C86.6228 53.2279 86.6529 53.3911 86.7131 53.5418C86.7734 53.6924 86.8566 53.8234 86.9629 53.9346C87.0692 54.0422 87.1932 54.1283 87.335 54.1929C87.4767 54.2538 87.6308 54.2843 87.7973 54.2843Z" fill="white"/>
<path d="M91.5796 54.9408V51.1741H94.4389V51.8521H92.3502V52.7131H93.7267V53.3696H92.3502V54.2628H94.4602V54.9408H91.5796Z" fill="white"/>
<path d="M98.1151 55C97.8388 55 97.5819 54.9516 97.3445 54.8547C97.1071 54.7543 96.898 54.6162 96.7173 54.4404C96.5366 54.261 96.3949 54.0547 96.2922 53.8216C96.193 53.5848 96.1434 53.3301 96.1434 53.0575C96.1434 52.7848 96.193 52.5319 96.2922 52.2987C96.3949 52.062 96.5349 51.8557 96.712 51.6799C96.8892 51.5006 97.0965 51.3625 97.3339 51.2656C97.5748 51.1652 97.8317 51.1149 98.1045 51.1149C98.4128 51.1149 98.7033 51.1777 98.9761 51.3033C99.2489 51.4252 99.4739 51.5974 99.6511 51.8198L99.1143 52.3203C98.9867 52.1588 98.8362 52.0369 98.6625 51.9544C98.4889 51.8719 98.3029 51.8306 98.1045 51.8306C97.938 51.8306 97.7838 51.8629 97.6421 51.9275C97.5004 51.9884 97.3764 52.0745 97.2701 52.1857C97.1638 52.2934 97.0805 52.4225 97.0203 52.5732C96.9636 52.7203 96.9353 52.8817 96.9353 53.0575C96.9353 53.2332 96.9654 53.3965 97.0256 53.5471C97.0858 53.6978 97.1691 53.8287 97.2754 53.9399C97.3852 54.0476 97.511 54.1337 97.6527 54.1982C97.798 54.2592 97.9557 54.2897 98.1258 54.2897C98.3029 54.2897 98.4623 54.2574 98.6041 54.1929C98.7458 54.1247 98.8645 54.0314 98.9602 53.913C99.0594 53.7911 99.1249 53.6548 99.1568 53.5041H98.0567V52.8261H99.9806V53.0628C99.9806 53.3427 99.9328 53.6009 99.8371 53.8377C99.745 54.0709 99.6156 54.2754 99.4491 54.4511C99.2826 54.6233 99.0859 54.7579 98.8592 54.8547C98.6324 54.9516 98.3844 55 98.1151 55Z" fill="white"/>
<path d="M100.613 54.9408V51.1741H103.472V51.8521H101.383V52.7131H102.76V53.3696H101.383V54.2628H103.493V54.9408H100.613Z" fill="white"/>
<path d="M105.473 54.9946C105.172 54.9946 104.878 54.939 104.591 54.8278C104.304 54.713 104.049 54.5516 103.826 54.3435L104.267 53.7839C104.483 53.9776 104.69 54.1175 104.889 54.2036C105.091 54.2897 105.303 54.3328 105.526 54.3328C105.682 54.3328 105.817 54.3148 105.93 54.2789C106.044 54.2395 106.131 54.1839 106.191 54.1121C106.255 54.0404 106.286 53.9561 106.286 53.8592C106.286 53.7301 106.24 53.6314 106.148 53.5633C106.056 53.4915 105.898 53.4359 105.675 53.3965L104.936 53.2673C104.621 53.2135 104.38 53.1005 104.214 52.9283C104.051 52.7561 103.969 52.5337 103.969 52.2611C103.969 52.0279 104.028 51.8252 104.145 51.653C104.265 51.4808 104.433 51.3499 104.649 51.2602C104.869 51.1669 105.13 51.1203 105.431 51.1203C105.704 51.1203 105.975 51.1669 106.244 51.2602C106.517 51.3535 106.758 51.4826 106.967 51.6476L106.552 52.2288C106.162 51.9275 105.771 51.7768 105.378 51.7768C105.239 51.7768 105.119 51.7947 105.016 51.8306C104.913 51.8665 104.834 51.9167 104.777 51.9813C104.724 52.0423 104.697 52.1158 104.697 52.2019C104.697 52.3167 104.738 52.4064 104.82 52.4709C104.901 52.5319 105.037 52.5786 105.229 52.6108L105.93 52.7292C106.302 52.7902 106.58 52.9104 106.765 53.0898C106.949 53.2655 107.041 53.4987 107.041 53.7893C107.041 54.0332 106.977 54.2467 106.85 54.4296C106.722 54.609 106.54 54.7489 106.302 54.8493C106.069 54.9462 105.792 54.9946 105.473 54.9946Z" fill="white"/>
<path d="M108.541 54.9408V51.8629H107.287V51.1741H110.561V51.8629H109.312V54.9408H108.541Z" fill="white"/>
<path d="M110.063 54.9408L111.594 51.1741H112.481L113.996 54.9408H113.162L112.784 53.9507H111.248L110.866 54.9408H110.063ZM111.488 53.3265H112.55L112.019 51.9382L111.488 53.3265ZM111.445 50.7652L110.999 50.6683C111.094 50.2342 111.296 50.0172 111.604 50.0172C111.704 50.0172 111.799 50.0405 111.891 50.0872C111.987 50.1302 112.077 50.1751 112.163 50.2217C112.248 50.2647 112.322 50.2863 112.386 50.2863C112.446 50.2863 112.494 50.2647 112.529 50.2217C112.565 50.1786 112.595 50.1033 112.62 49.9957L113.055 50.0925C113.013 50.315 112.94 50.48 112.837 50.5876C112.738 50.6952 112.611 50.749 112.455 50.749C112.359 50.749 112.263 50.7275 112.168 50.6845C112.076 50.6378 111.987 50.593 111.902 50.5499C111.817 50.5033 111.739 50.48 111.668 50.48C111.612 50.48 111.565 50.5015 111.53 50.5445C111.495 50.5876 111.466 50.6611 111.445 50.7652Z" fill="white"/>
<path d="M116.034 55C115.757 55 115.5 54.9516 115.263 54.8547C115.026 54.7543 114.816 54.6162 114.636 54.4404C114.459 54.261 114.319 54.0547 114.216 53.8216C114.117 53.5848 114.067 53.3301 114.067 53.0575C114.067 52.7848 114.117 52.5319 114.216 52.2987C114.319 52.062 114.459 51.8557 114.636 51.6799C114.816 51.5006 115.026 51.3625 115.263 51.2656C115.5 51.1652 115.757 51.1149 116.034 51.1149C116.31 51.1149 116.567 51.1652 116.804 51.2656C117.045 51.3625 117.254 51.5006 117.431 51.6799C117.612 51.8557 117.752 52.062 117.851 52.2987C117.95 52.5319 118 52.7848 118 53.0575C118 53.3301 117.95 53.5848 117.851 53.8216C117.752 54.0547 117.612 54.261 117.431 54.4404C117.254 54.6162 117.045 54.7543 116.804 54.8547C116.567 54.9516 116.31 55 116.034 55ZM116.034 54.2843C116.204 54.2843 116.36 54.2538 116.501 54.1929C116.643 54.1283 116.767 54.0422 116.873 53.9346C116.98 53.8234 117.063 53.6924 117.123 53.5418C117.183 53.3911 117.213 53.2297 117.213 53.0575C117.213 52.8817 117.183 52.7203 117.123 52.5732C117.063 52.4225 116.98 52.2934 116.873 52.1857C116.767 52.0745 116.643 51.9884 116.501 51.9275C116.36 51.8629 116.204 51.8306 116.034 51.8306C115.867 51.8306 115.713 51.8629 115.571 51.9275C115.429 51.9884 115.305 52.0745 115.199 52.1857C115.093 52.2934 115.01 52.4225 114.949 52.5732C114.889 52.7203 114.859 52.8799 114.859 53.0521C114.859 53.2279 114.889 53.3911 114.949 53.5418C115.01 53.6924 115.093 53.8234 115.199 53.9346C115.305 54.0422 115.429 54.1283 115.571 54.1929C115.713 54.2538 115.867 54.2843 116.034 54.2843Z" fill="white"/>
<path d="M45.7394 48.2324C45.4147 48.2324 45.1016 48.1678 44.8001 48.0387C44.4986 47.9095 44.2319 47.7276 44 47.4927L44.3711 47.0584C44.5914 47.2775 44.8156 47.4399 45.0436 47.5456C45.2755 47.6512 45.5171 47.7041 45.7684 47.7041C45.9655 47.7041 46.1375 47.6767 46.2844 47.6219C46.4351 47.5632 46.5511 47.481 46.6322 47.3753C46.7134 47.2697 46.754 47.1503 46.754 47.0173C46.754 46.8333 46.6902 46.6924 46.5627 46.5946C46.4351 46.4968 46.2245 46.4224 45.9307 46.3715L45.2523 46.26C44.8813 46.1935 44.603 46.0722 44.4174 45.8961C44.2358 45.72 44.1449 45.4852 44.1449 45.1916C44.1449 44.9568 44.2068 44.7514 44.3305 44.5753C44.4542 44.3953 44.6281 44.2563 44.8523 44.1585C45.0803 44.0607 45.3432 44.0117 45.6408 44.0117C45.9346 44.0117 46.2225 44.0607 46.5047 44.1585C46.7907 44.2524 47.0478 44.3894 47.2758 44.5694L46.9395 45.039C46.5028 44.7025 46.0602 44.5342 45.6118 44.5342C45.434 44.5342 45.2794 44.5596 45.148 44.6105C45.0166 44.6614 44.9141 44.7338 44.8407 44.8277C44.7673 44.9177 44.7305 45.0234 44.7305 45.1447C44.7305 45.313 44.7866 45.4421 44.8987 45.5321C45.0108 45.6182 45.1963 45.6808 45.4553 45.72L46.1104 45.8315C46.5395 45.9019 46.8545 46.0291 47.0555 46.2131C47.2565 46.397 47.357 46.6494 47.357 46.9703C47.357 47.2208 47.2893 47.4419 47.1541 47.6336C47.0188 47.8215 46.8294 47.9682 46.5859 48.0739C46.3424 48.1796 46.0602 48.2324 45.7394 48.2324Z" fill="white"/>
<path d="M47.979 48.1737V44.0646H50.9707V44.6046H48.5878V45.8374H50.1532V46.3598H48.5878V47.6336H50.9939V48.1737H47.979Z" fill="white"/>
<path d="M53.3824 48.2383C53.0809 48.2383 52.8007 48.1854 52.5417 48.0798C52.2866 47.9702 52.0605 47.8195 51.8634 47.6278C51.6701 47.4321 51.5193 47.2071 51.4111 46.9527C51.3068 46.6944 51.2546 46.4166 51.2546 46.1191C51.2546 45.8217 51.3068 45.5458 51.4111 45.2914C51.5193 45.0331 51.6701 44.8081 51.8634 44.6164C52.0605 44.4207 52.2885 44.27 52.5475 44.1644C52.8065 44.0548 53.0848 44 53.3824 44C53.595 44 53.8018 44.0294 54.0028 44.0881C54.2076 44.1428 54.3951 44.2231 54.5652 44.3287C54.7391 44.4344 54.8899 44.5616 55.0174 44.7103L54.6116 45.1329C54.4608 44.949 54.2772 44.8101 54.0608 44.7162C53.8443 44.6183 53.6182 44.5694 53.3824 44.5694C53.1659 44.5694 52.965 44.6085 52.7794 44.6868C52.5978 44.7651 52.4393 44.8747 52.304 45.0155C52.1687 45.1525 52.0624 45.3149 51.9851 45.5028C51.9117 45.6906 51.8749 45.8961 51.8749 46.1191C51.8749 46.3383 51.9117 46.5418 51.9851 46.7296C52.0624 46.9175 52.1706 47.0818 52.3098 47.2227C52.4489 47.3636 52.6113 47.4732 52.7968 47.5514C52.9823 47.6297 53.1833 47.6689 53.3998 47.6689C53.6356 47.6689 53.8578 47.6219 54.0666 47.528C54.2791 47.4301 54.4589 47.2932 54.6058 47.1171L55.0058 47.528C54.8705 47.6728 54.7159 47.8 54.542 47.9095C54.3719 48.0152 54.1864 48.0974 53.9854 48.1561C53.7883 48.2109 53.5873 48.2383 53.3824 48.2383Z" fill="white"/>
<path d="M55.6594 48.1737V44.0646H57.4973C57.7679 44.0646 58.0037 44.1154 58.2047 44.2172C58.4095 44.3189 58.568 44.4618 58.6801 44.6457C58.7961 44.8257 58.854 45.0371 58.854 45.2797C58.854 45.5497 58.7787 45.7826 58.6279 45.9782C58.4772 46.1739 58.2742 46.3148 58.0191 46.4009L58.9236 48.1737H58.251L57.4104 46.489H56.2682V48.1737H55.6594ZM56.2682 45.9724H57.4509C57.6906 45.9724 57.8819 45.9117 58.0249 45.7904C58.1718 45.6652 58.2452 45.4969 58.2452 45.2856C58.2452 45.0821 58.1718 44.9177 58.0249 44.7925C57.8819 44.6672 57.6906 44.6046 57.4509 44.6046H56.2682V45.9724Z" fill="white"/>
<path d="M59.5392 48.1737V44.0646H62.5309V44.6046H60.148V45.8374H61.7134V46.3598H60.148V47.6336H62.5541V48.1737H59.5392Z" fill="white"/>
<path d="M64.3511 48.1737V44.6105H62.9248V44.0646H66.3861V44.6105H64.9598V48.1737H64.3511Z" fill="white"/>
<path d="M65.8173 48.1737L67.4928 44.0646H68.2118L69.87 48.1737H69.209L68.7394 46.9703H66.9247L66.4492 48.1737H65.8173ZM67.1218 46.4596H68.5423L67.8349 44.6516L67.1218 46.4596Z" fill="white"/>
<path d="M70.3464 48.1737V44.0646H72.1843C72.4549 44.0646 72.6907 44.1154 72.8917 44.2172C73.0965 44.3189 73.255 44.4618 73.3671 44.6457C73.4831 44.8257 73.541 45.0371 73.541 45.2797C73.541 45.5497 73.4657 45.7826 73.3149 45.9782C73.1642 46.1739 72.9613 46.3148 72.7062 46.4009L73.6106 48.1737H72.9381L72.0974 46.489H70.9552V48.1737H70.3464ZM70.9552 45.9724H72.138C72.3776 45.9724 72.5689 45.9117 72.712 45.7904C72.8588 45.6652 72.9323 45.4969 72.9323 45.2856C72.9323 45.0821 72.8588 44.9177 72.712 44.7925C72.5689 44.6672 72.3776 44.6046 72.138 44.6046H70.9552V45.9724Z" fill="white"/>
<path d="M74.2262 48.1737V44.0646H74.835V48.1737H74.2262Z" fill="white"/>
<path d="M75.3165 48.1737L76.9921 44.0646H77.7111L79.3693 48.1737H78.7083L78.2387 46.9703H76.4239L75.9485 48.1737H75.3165ZM76.621 46.4596H78.0415L77.3342 44.6516L76.621 46.4596Z" fill="white"/>
<path d="M81.7241 47.6219H82.559C82.7716 47.6219 82.9687 47.5847 83.1504 47.5104C83.3321 47.4321 83.4905 47.3264 83.6258 47.1934C83.765 47.0564 83.8713 46.8979 83.9447 46.7179C84.022 46.534 84.0606 46.3344 84.0606 46.1191C84.0606 45.9078 84.022 45.7102 83.9447 45.5262C83.8713 45.3423 83.765 45.1838 83.6258 45.0508C83.4905 44.9138 83.3321 44.8081 83.1504 44.7338C82.9687 44.6555 82.7716 44.6164 82.559 44.6164H81.7241V47.6219ZM81.1153 48.1737V44.0646H82.5474C82.8528 44.0646 83.1349 44.1174 83.3939 44.2231C83.6529 44.3248 83.879 44.4677 84.0723 44.6516C84.2655 44.8355 84.4163 45.0527 84.5245 45.3032C84.6327 45.5536 84.6868 45.8256 84.6868 46.1191C84.6868 46.4166 84.6327 46.6905 84.5245 46.941C84.4201 47.1875 84.2713 47.4027 84.078 47.5867C83.8848 47.7706 83.6567 47.9154 83.3939 48.0211C83.1349 48.1228 82.8528 48.1737 82.5474 48.1737H81.1153Z" fill="white"/>
<path d="M87.3223 48.2383C87.0286 48.2383 86.7541 48.1854 86.499 48.0798C86.2439 47.9702 86.0178 47.8195 85.8207 47.6278C85.6274 47.4321 85.4767 47.2071 85.3684 46.9527C85.2641 46.6944 85.2119 46.4166 85.2119 46.1191C85.2119 45.8217 85.2641 45.5458 85.3684 45.2914C85.4767 45.0331 85.6274 44.8081 85.8207 44.6164C86.0178 44.4207 86.2439 44.27 86.499 44.1644C86.7541 44.0548 87.0286 44 87.3223 44C87.6161 44 87.8905 44.0548 88.1456 44.1644C88.4046 44.27 88.6307 44.4207 88.824 44.6164C89.0173 44.8081 89.168 45.0331 89.2762 45.2914C89.3845 45.5458 89.4386 45.8217 89.4386 46.1191C89.4386 46.4166 89.3845 46.6944 89.2762 46.9527C89.168 47.2071 89.0173 47.4321 88.824 47.6278C88.6307 47.8195 88.4046 47.9702 88.1456 48.0798C87.8905 48.1854 87.6161 48.2383 87.3223 48.2383ZM87.3281 47.6689C87.5369 47.6689 87.7301 47.6297 87.9079 47.5514C88.0896 47.4732 88.2481 47.3656 88.3833 47.2286C88.5186 47.0877 88.6249 46.9233 88.7022 46.7355C88.7795 46.5437 88.8182 46.3383 88.8182 46.1191C88.8182 45.8961 88.7795 45.6906 88.7022 45.5028C88.6249 45.3149 88.5186 45.1525 88.3833 45.0155C88.2481 44.8747 88.0896 44.7651 87.9079 44.6868C87.7301 44.6085 87.5369 44.5694 87.3281 44.5694C87.1155 44.5694 86.9184 44.6085 86.7367 44.6868C86.5551 44.7651 86.3966 44.8747 86.2613 45.0155C86.126 45.1525 86.0197 45.3149 85.9424 45.5028C85.869 45.6906 85.8323 45.8941 85.8323 46.1133C85.8323 46.3363 85.869 46.5437 85.9424 46.7355C86.0197 46.9233 86.126 47.0877 86.2613 47.2286C86.3966 47.3656 86.5551 47.4732 86.7367 47.5514C86.9184 47.6297 87.1155 47.6689 87.3281 47.6689Z" fill="white"/>
<path d="M47.3663 37.4993C46.8568 37.4993 46.3959 37.4187 45.9834 37.2576C45.571 37.0964 45.2161 36.8696 44.9189 36.5772C44.6217 36.2848 44.3943 35.9416 44.2366 35.5477C44.0789 35.1478 44 34.7151 44 34.2496C44 33.7841 44.0819 33.3574 44.2457 32.9695C44.4155 32.5756 44.6551 32.2324 44.9644 31.94C45.2737 31.6475 45.6377 31.4208 46.0562 31.2596C46.4808 31.0985 46.9417 31.0179 47.4391 31.0179C47.7909 31.0179 48.1215 31.0627 48.4308 31.1522C48.7462 31.2417 49.0313 31.3641 49.286 31.5192C49.5408 31.6744 49.7561 31.8534 49.932 32.0564L48.9949 33.0321C48.8433 32.8889 48.6856 32.7695 48.5218 32.6741C48.3641 32.5786 48.1943 32.504 48.0123 32.4502C47.8303 32.3906 47.6362 32.3607 47.43 32.3607C47.1631 32.3607 46.9175 32.4085 46.6931 32.504C46.4747 32.5995 46.2806 32.7337 46.1108 32.9068C45.947 33.0739 45.8196 33.2738 45.7287 33.5066C45.6377 33.7334 45.5922 33.9811 45.5922 34.2496C45.5922 34.5182 45.6407 34.7689 45.7378 35.0016C45.8348 35.2344 45.9682 35.4373 46.1381 35.6104C46.3079 35.7775 46.5081 35.9118 46.7385 36.0132C46.9751 36.1087 47.2268 36.1564 47.4937 36.1564C47.6817 36.1564 47.8576 36.1266 48.0214 36.0669C48.1912 36.0072 48.3368 35.9267 48.4581 35.8252C48.5794 35.7238 48.6765 35.6044 48.7492 35.4671C48.822 35.3239 48.8584 35.1717 48.8584 35.0106V34.7778L49.0586 35.0822H47.3026V33.8915H50.2959C50.3081 33.9572 50.3172 34.0467 50.3232 34.1601C50.3293 34.2735 50.3323 34.3839 50.3323 34.4913C50.3384 34.5988 50.3414 34.6793 50.3414 34.7331C50.3414 35.1389 50.2656 35.5119 50.114 35.8521C49.9684 36.1863 49.7622 36.4757 49.4953 36.7204C49.2284 36.9651 48.913 37.1561 48.5491 37.2934C48.1852 37.4306 47.7909 37.4993 47.3663 37.4993Z" fill="white"/>
<path d="M54.6788 37.4993C54.1935 37.4993 53.7508 37.4187 53.3504 37.2576C52.9501 37.0964 52.6013 36.8696 52.3041 36.5772C52.0069 36.2848 51.7764 35.9416 51.6127 35.5477C51.4489 35.1538 51.367 34.7211 51.367 34.2496C51.367 33.7782 51.4489 33.3455 51.6127 32.9516C51.7764 32.5577 52.0069 32.2145 52.3041 31.9221C52.6013 31.6296 52.9501 31.4028 53.3504 31.2417C53.7508 31.0806 54.1905 31 54.6697 31C55.1488 31 55.5886 31.0806 55.9889 31.2417C56.3892 31.4028 56.738 31.6296 57.0352 31.9221C57.3324 32.2145 57.5599 32.5577 57.7176 32.9516C57.8813 33.3455 57.9632 33.7782 57.9632 34.2496C57.9632 34.7151 57.8813 35.1478 57.7176 35.5477C57.5599 35.9416 57.3324 36.2848 57.0352 36.5772C56.738 36.8696 56.3892 37.0964 55.9889 37.2576C55.5886 37.4187 55.1519 37.4993 54.6788 37.4993ZM54.6697 36.0669C54.9183 36.0669 55.1458 36.0222 55.352 35.9326C55.5643 35.8431 55.7463 35.7178 55.8979 35.5566C56.0556 35.3895 56.1769 35.1956 56.2618 34.9748C56.3468 34.7539 56.3892 34.5122 56.3892 34.2496C56.3892 33.987 56.3468 33.7453 56.2618 33.5245C56.1769 33.3037 56.0556 33.1127 55.8979 32.9516C55.7463 32.7845 55.5643 32.6561 55.352 32.5666C55.1458 32.4771 54.9183 32.4323 54.6697 32.4323C54.421 32.4323 54.1905 32.4771 53.9782 32.5666C53.772 32.6561 53.59 32.7845 53.4323 32.9516C53.2746 33.1127 53.1533 33.3037 53.0684 33.5245C52.9895 33.7453 52.9501 33.987 52.9501 34.2496C52.9501 34.5122 52.9895 34.7569 53.0684 34.9837C53.1533 35.2045 53.2746 35.3955 53.4323 35.5566C53.59 35.7178 53.772 35.8431 53.9782 35.9326C54.1905 36.0222 54.421 36.0669 54.6697 36.0669Z" fill="white"/>
<path d="M60.9178 37.4097L58.3703 31.1432H59.9807L61.209 34.3392C61.2818 34.5242 61.3424 34.6853 61.3909 34.8226C61.4455 34.9598 61.491 35.0882 61.5274 35.2075C61.5699 35.3269 61.6063 35.4492 61.6366 35.5746C61.673 35.6939 61.7124 35.8312 61.7549 35.9864H61.4728C61.5213 35.7834 61.5699 35.6044 61.6184 35.4492C61.6669 35.2881 61.7215 35.124 61.7822 34.9569C61.8428 34.7838 61.9186 34.5779 62.0096 34.3392L63.1924 31.1432H64.7755L62.2098 37.4097H60.9178Z" fill="white"/>
<path d="M65.8619 37.4097V31.1432H70.3018V32.4413H67.3631V36.1117H70.3928V37.4097H65.8619ZM66.5898 34.8405V33.6051H69.8924V34.8405H66.5898Z" fill="white"/>
<path d="M71.9762 37.4097V31.1432H74.8421C75.2485 31.1432 75.6154 31.2298 75.943 31.4028C76.2766 31.5759 76.5374 31.8146 76.7254 32.119C76.9134 32.4174 77.0075 32.7576 77.0075 33.1396C77.0075 33.5335 76.9134 33.8886 76.7254 34.2049C76.5374 34.5152 76.2796 34.7599 75.9521 34.9389C75.6245 35.118 75.2545 35.2075 74.8421 35.2075H73.4501V37.4097H71.9762ZM75.5063 37.4097L73.8868 34.5809L75.4699 34.3571L77.2713 37.4097H75.5063ZM73.4501 34.0437H74.7056C74.8633 34.0437 74.9998 34.0109 75.115 33.9453C75.2363 33.8736 75.3273 33.7752 75.388 33.6498C75.4547 33.5245 75.4881 33.3813 75.4881 33.2201C75.4881 33.059 75.4517 32.9187 75.3789 32.7994C75.3061 32.6741 75.1999 32.5786 75.0604 32.5129C74.927 32.4473 74.7632 32.4144 74.5691 32.4144H73.4501V34.0437Z" fill="white"/>
<path d="M78.6146 37.4097V31.1432H79.9976L83.3366 35.6193L83.0363 35.5746C83.006 35.3776 82.9818 35.1896 82.9636 35.0106C82.9454 34.8315 82.9272 34.6555 82.909 34.4824C82.8968 34.3093 82.8847 34.1333 82.8726 33.9542C82.8665 33.7752 82.8604 33.5812 82.8544 33.3723C82.8544 33.1634 82.8544 32.9367 82.8544 32.692V31.1432H84.3556V37.4097H82.9545L79.4699 32.7904L79.9339 32.8531C79.9642 33.1396 79.9885 33.3843 80.0067 33.5872C80.0309 33.7841 80.0491 33.9602 80.0612 34.1154C80.0794 34.2705 80.0916 34.4108 80.0976 34.5361C80.1037 34.6614 80.1067 34.7868 80.1067 34.9121C80.1128 35.0315 80.1158 35.1657 80.1158 35.3149V37.4097H78.6146Z" fill="white"/>
<path d="M89.1061 37.4993C88.6209 37.4993 88.1781 37.4187 87.7778 37.2576C87.3775 37.0964 87.0287 36.8696 86.7315 36.5772C86.4343 36.2848 86.2038 35.9416 86.04 35.5477C85.8763 35.1538 85.7944 34.7211 85.7944 34.2496C85.7944 33.7782 85.8763 33.3455 86.04 32.9516C86.2038 32.5577 86.4343 32.2145 86.7315 31.9221C87.0287 31.6296 87.3775 31.4028 87.7778 31.2417C88.1781 31.0806 88.6178 31 89.097 31C89.5762 31 90.0159 31.0806 90.4162 31.2417C90.8166 31.4028 91.1653 31.6296 91.4625 31.9221C91.7597 32.2145 91.9872 32.5577 92.1449 32.9516C92.3087 33.3455 92.3905 33.7782 92.3905 34.2496C92.3905 34.7151 92.3087 35.1478 92.1449 35.5477C91.9872 35.9416 91.7597 36.2848 91.4625 36.5772C91.1653 36.8696 90.8166 37.0964 90.4162 37.2576C90.0159 37.4187 89.5792 37.4993 89.1061 37.4993ZM89.097 36.0669C89.3457 36.0669 89.5731 36.0222 89.7794 35.9326C89.9917 35.8431 90.1736 35.7178 90.3253 35.5566C90.483 35.3895 90.6043 35.1956 90.6892 34.9748C90.7741 34.7539 90.8166 34.5122 90.8166 34.2496C90.8166 33.987 90.7741 33.7453 90.6892 33.5245C90.6043 33.3037 90.483 33.1127 90.3253 32.9516C90.1736 32.7845 89.9917 32.6561 89.7794 32.5666C89.5731 32.4771 89.3457 32.4323 89.097 32.4323C88.8483 32.4323 88.6178 32.4771 88.4055 32.5666C88.1993 32.6561 88.0174 32.7845 87.8597 32.9516C87.702 33.1127 87.5806 33.3037 87.4957 33.5245C87.4169 33.7453 87.3775 33.987 87.3775 34.2496C87.3775 34.5122 87.4169 34.7569 87.4957 34.9837C87.5806 35.2045 87.702 35.3955 87.8597 35.5566C88.0174 35.7178 88.1993 35.8431 88.4055 35.9326C88.6178 36.0222 88.8483 36.0669 89.097 36.0669Z" fill="white"/>
<path d="M97.0018 37.4097V31.1432H99.6676C100.135 31.1432 100.562 31.2208 100.95 31.376C101.339 31.5252 101.672 31.74 101.951 32.0205C102.236 32.301 102.455 32.6323 102.606 33.0142C102.758 33.3962 102.834 33.8169 102.834 34.2765C102.834 34.736 102.758 35.1598 102.606 35.5477C102.455 35.9297 102.236 36.2609 101.951 36.5414C101.672 36.8159 101.339 37.0308 100.95 37.1859C100.562 37.3351 100.135 37.4097 99.6676 37.4097H97.0018ZM98.5485 36.3713L98.3393 36.0669H99.6221C99.8768 36.0669 100.104 36.0251 100.304 35.9416C100.505 35.8521 100.674 35.7297 100.814 35.5746C100.96 35.4194 101.072 35.2314 101.151 35.0106C101.229 34.7897 101.269 34.5451 101.269 34.2765C101.269 34.0079 101.229 33.7632 101.151 33.5424C101.072 33.3216 100.96 33.1336 100.814 32.9784C100.674 32.8233 100.505 32.7039 100.304 32.6203C100.104 32.5308 99.8768 32.4861 99.6221 32.4861H98.312L98.5485 32.1996V36.3713Z" fill="white"/>
<path d="M107.182 37.4993C106.697 37.4993 106.254 37.4187 105.854 37.2576C105.454 37.0964 105.105 36.8696 104.808 36.5772C104.51 36.2848 104.28 35.9416 104.116 35.5477C103.952 35.1538 103.871 34.7211 103.871 34.2496C103.871 33.7782 103.952 33.3455 104.116 32.9516C104.28 32.5577 104.51 32.2145 104.808 31.9221C105.105 31.6296 105.454 31.4028 105.854 31.2417C106.254 31.0806 106.694 31 107.173 31C107.652 31 108.092 31.0806 108.492 31.2417C108.893 31.4028 109.242 31.6296 109.539 31.9221C109.836 32.2145 110.063 32.5577 110.221 32.9516C110.385 33.3455 110.467 33.7782 110.467 34.2496C110.467 34.7151 110.385 35.1478 110.221 35.5477C110.063 35.9416 109.836 36.2848 109.539 36.5772C109.242 36.8696 108.893 37.0964 108.492 37.2576C108.092 37.4187 107.655 37.4993 107.182 37.4993ZM107.173 36.0669C107.422 36.0669 107.649 36.0222 107.856 35.9326C108.068 35.8431 108.25 35.7178 108.401 35.5566C108.559 35.3895 108.68 35.1956 108.765 34.9748C108.85 34.7539 108.893 34.5122 108.893 34.2496C108.893 33.987 108.85 33.7453 108.765 33.5245C108.68 33.3037 108.559 33.1127 108.401 32.9516C108.25 32.7845 108.068 32.6561 107.856 32.5666C107.649 32.4771 107.422 32.4323 107.173 32.4323C106.925 32.4323 106.694 32.4771 106.482 32.5666C106.276 32.6561 106.094 32.7845 105.936 32.9516C105.778 33.1127 105.657 33.3037 105.572 33.5245C105.493 33.7453 105.454 33.987 105.454 34.2496C105.454 34.5122 105.493 34.7569 105.572 34.9837C105.657 35.2045 105.778 35.3955 105.936 35.5566C106.094 35.7178 106.276 35.8431 106.482 35.9326C106.694 36.0222 106.925 36.0669 107.173 36.0669Z" fill="white"/>
<path d="M115.078 37.4097V31.1432H119.518V32.4413H116.579V36.1117H119.609V37.4097H115.078ZM115.806 34.8405V33.6051H119.109V34.8405H115.806Z" fill="white"/>
<path d="M123.303 37.4993C122.885 37.4993 122.505 37.4515 122.166 37.356C121.832 37.2546 121.535 37.1113 121.274 36.9263C121.013 36.7353 120.78 36.5115 120.574 36.2549L121.511 35.2075C121.814 35.6074 122.117 35.8759 122.421 36.0132C122.73 36.1505 123.048 36.2191 123.376 36.2191C123.54 36.2191 123.688 36.1982 123.822 36.1564C123.955 36.1147 124.058 36.055 124.131 35.9774C124.204 35.8938 124.24 35.7924 124.24 35.673C124.24 35.5835 124.216 35.5029 124.167 35.4313C124.125 35.3597 124.064 35.297 123.985 35.2433C123.907 35.1896 123.813 35.1419 123.703 35.1001C123.594 35.0523 123.479 35.0136 123.358 34.9837C123.236 34.9479 123.112 34.9181 122.985 34.8942C122.633 34.8166 122.327 34.7211 122.066 34.6077C121.805 34.4943 121.587 34.3571 121.411 34.1959C121.241 34.0288 121.113 33.8408 121.029 33.6319C120.944 33.4171 120.901 33.1784 120.901 32.9158C120.901 32.6353 120.965 32.3786 121.092 32.1459C121.226 31.9072 121.402 31.7042 121.62 31.5371C121.844 31.3641 122.102 31.2328 122.393 31.1432C122.684 31.0477 122.988 31 123.303 31C123.722 31 124.079 31.0448 124.377 31.1343C124.68 31.2178 124.938 31.3402 125.15 31.5013C125.368 31.6625 125.553 31.8564 125.705 32.0832L124.75 32.9874C124.622 32.8322 124.483 32.7039 124.331 32.6024C124.186 32.501 124.028 32.4234 123.858 32.3697C123.694 32.316 123.524 32.2891 123.349 32.2891C123.167 32.2891 123.009 32.313 122.875 32.3607C122.748 32.4025 122.648 32.4652 122.575 32.5487C122.502 32.6263 122.466 32.7218 122.466 32.8352C122.466 32.9367 122.496 33.0232 122.557 33.0948C122.618 33.1664 122.7 33.2321 122.803 33.2918C122.906 33.3455 123.024 33.3932 123.158 33.435C123.291 33.4708 123.43 33.5006 123.576 33.5245C123.91 33.5902 124.21 33.6767 124.477 33.7841C124.75 33.8915 124.983 34.0228 125.177 34.178C125.377 34.3332 125.529 34.5182 125.632 34.7331C125.741 34.9419 125.796 35.1866 125.796 35.4671C125.796 35.9028 125.687 36.2728 125.468 36.5772C125.256 36.8756 124.962 37.1054 124.586 37.2665C124.216 37.4217 123.788 37.4993 123.303 37.4993Z" fill="white"/>
<path d="M128.592 37.4097V32.4861H126.699V31.1432H132.076V32.4861H130.138V37.4097H128.592Z" fill="white"/>
<path d="M132.158 37.4097L134.678 31.1432H135.988L138.49 37.4097H136.925L135.724 34.2317C135.676 34.1064 135.627 33.9721 135.579 33.8289C135.53 33.6856 135.482 33.5394 135.433 33.3902C135.385 33.2351 135.336 33.0859 135.288 32.9426C135.245 32.7934 135.209 32.6561 135.179 32.5308L135.451 32.5219C135.415 32.6711 135.373 32.8173 135.324 32.9605C135.282 33.1038 135.236 33.247 135.188 33.3902C135.145 33.5275 135.097 33.6677 135.042 33.811C134.987 33.9482 134.936 34.0915 134.887 34.2407L133.686 37.4097H132.158ZM133.359 36.2102L133.841 35.0643H136.771L137.244 36.2102H133.359Z" fill="white"/>
<path d="M139.535 37.4097V31.1432H142.201C142.668 31.1432 143.095 31.2208 143.484 31.376C143.872 31.5252 144.205 31.74 144.484 32.0205C144.77 32.301 144.988 32.6323 145.14 33.0142C145.291 33.3962 145.367 33.8169 145.367 34.2765C145.367 34.736 145.291 35.1598 145.14 35.5477C144.988 35.9297 144.77 36.2609 144.484 36.5414C144.205 36.8159 143.872 37.0308 143.484 37.1859C143.095 37.3351 142.668 37.4097 142.201 37.4097H139.535ZM141.082 36.3713L140.872 36.0669H142.155C142.41 36.0669 142.638 36.0251 142.838 35.9416C143.038 35.8521 143.208 35.7297 143.347 35.5746C143.493 35.4194 143.605 35.2314 143.684 35.0106C143.763 34.7897 143.802 34.5451 143.802 34.2765C143.802 34.0079 143.763 33.7632 143.684 33.5424C143.605 33.3216 143.493 33.1336 143.347 32.9784C143.208 32.8233 143.038 32.7039 142.838 32.6203C142.638 32.5308 142.41 32.4861 142.155 32.4861H140.845L141.082 32.1996V36.3713Z" fill="white"/>
<path d="M149.716 37.4993C149.23 37.4993 148.788 37.4187 148.387 37.2576C147.987 37.0964 147.638 36.8696 147.341 36.5772C147.044 36.2848 146.813 35.9416 146.649 35.5477C146.486 35.1538 146.404 34.7211 146.404 34.2496C146.404 33.7782 146.486 33.3455 146.649 32.9516C146.813 32.5577 147.044 32.2145 147.341 31.9221C147.638 31.6296 147.987 31.4028 148.387 31.2417C148.788 31.0806 149.227 31 149.706 31C150.186 31 150.625 31.0806 151.026 31.2417C151.426 31.4028 151.775 31.6296 152.072 31.9221C152.369 32.2145 152.597 32.5577 152.754 32.9516C152.918 33.3455 153 33.7782 153 34.2496C153 34.7151 152.918 35.1478 152.754 35.5477C152.597 35.9416 152.369 36.2848 152.072 36.5772C151.775 36.8696 151.426 37.0964 151.026 37.2576C150.625 37.4187 150.189 37.4993 149.716 37.4993ZM149.706 36.0669C149.955 36.0669 150.183 36.0222 150.389 35.9326C150.601 35.8431 150.783 35.7178 150.935 35.5566C151.092 35.3895 151.214 35.1956 151.299 34.9748C151.384 34.7539 151.426 34.5122 151.426 34.2496C151.426 33.987 151.384 33.7453 151.299 33.5245C151.214 33.3037 151.092 33.1127 150.935 32.9516C150.783 32.7845 150.601 32.6561 150.389 32.5666C150.183 32.4771 149.955 32.4323 149.706 32.4323C149.458 32.4323 149.227 32.4771 149.015 32.5666C148.809 32.6561 148.627 32.7845 148.469 32.9516C148.311 33.1127 148.19 33.3037 148.105 33.5245C148.026 33.7453 147.987 33.987 147.987 34.2496C147.987 34.5122 148.026 34.7569 148.105 34.9837C148.19 35.2045 148.311 35.3955 148.469 35.5566C148.627 35.7178 148.809 35.8431 149.015 35.9326C149.227 36.0222 149.458 36.0669 149.706 36.0669Z" fill="white"/>
<path d="M67.8048 27.5377V7.72796H83.464V12.6804H74.0026V22.5853H84.0029V27.5377H67.8048ZM70.8887 19.8402V15.1991H82.3562V19.8402H70.8887Z" fill="white"/>
<path d="M86.3074 27.5377L94.7209 7.72796H99.8109L108.028 26.8994C108.125 27.1256 108.092 27.3577 107.872 27.4674C106.712 28.0452 102.572 29.0591 100.617 24.5945L98.4036 18.878C98.1841 18.2931 97.9944 17.7932 97.8348 17.3781C97.6751 16.9631 97.5354 16.5763 97.4156 16.2178C97.2958 15.8405 97.1761 15.4443 97.0563 15.0293C96.9365 14.5953 96.8168 14.0859 96.697 13.5011H97.715C97.5952 14.0859 97.4755 14.5953 97.3557 15.0293C97.2359 15.4443 97.1062 15.8405 96.9665 16.2178C96.8467 16.5763 96.697 16.9631 96.5174 17.3781C96.3577 17.7932 96.168 18.2931 95.9485 18.878L92.5951 27.5377H86.3074ZM90.4992 24.5945L92.3855 20.4345H102.116L103.823 24.5945H100.617H90.4992Z" fill="white"/>
<path d="M111.471 27.5377V7.72796H121.291C122.749 7.72796 124.046 8.00152 125.184 8.54865C126.322 9.09578 127.21 9.841 127.849 10.7843C128.487 11.7276 128.807 12.8125 128.807 14.0388C128.807 15.416 128.487 16.6235 127.849 17.6611C127.21 18.6988 126.322 19.51 125.184 20.0949C124.046 20.6609 122.749 20.9439 121.291 20.9439H117.519V27.5377H111.471ZM120.725 24.6281L119.355 19.4973L123.747 17.8875L129.156 26.6991C129.327 26.9781 129.192 27.3483 128.88 27.4481C126.987 28.054 123.089 29.0823 120.725 24.6281ZM117.519 16.6989H120.273C120.772 16.6989 121.182 16.614 121.501 16.4442C121.84 16.2556 122.09 16.0009 122.25 15.6801C122.429 15.3594 122.519 14.9727 122.519 14.5199C122.519 14.1048 122.429 13.7558 122.25 13.4728C122.09 13.1709 121.83 12.9445 121.471 12.7936C121.132 12.6238 120.693 12.5389 120.154 12.5389H117.519V16.6989Z" fill="white"/>
<path d="M131.143 27.5377L139.556 7.72796H144.646L152.786 26.75C152.919 27.0621 152.846 27.3889 152.535 27.5236C151.192 28.1041 147.334 28.9172 145.453 24.5945L143.239 18.878C143.02 18.2931 142.83 17.7932 142.67 17.3781C142.511 16.9631 142.371 16.5763 142.251 16.2178C142.131 15.8405 142.012 15.4443 141.892 15.0293C141.772 14.5953 141.652 14.0859 141.533 13.5011H142.551C142.431 14.0859 142.311 14.5953 142.191 15.0293C142.072 15.4443 141.942 15.8405 141.802 16.2178C141.682 16.5763 141.533 16.9631 141.353 17.3781C141.193 17.7932 141.004 18.2931 140.784 18.878L137.431 27.5377H131.143ZM135.335 24.5945L137.221 20.4345H146.952L148.659 24.5945H145.453H135.335ZM139.347 6.59104C138.916 6.74746 138.433 6.59011 138.177 6.2094L137.591 5.33902C137.27 4.86299 137.415 4.21547 137.908 3.9216L143.668 0.487464C144.126 0.214447 144.718 0.348701 145.013 0.792639L146.315 2.74955C146.674 3.28924 146.432 4.02254 145.823 4.24344L139.347 6.59104Z" fill="white"/>
<path d="M118.664 21.2076C118.203 20.8655 117.511 20.9795 117.511 20.9795L117.281 20.0674L119.816 19.8393L120.725 24.6281C120.277 23.83 119.701 21.8917 118.664 21.2076Z" fill="white"/>
<path d="M63.4635 11.5542C63.6524 11.3953 63.6789 11.1154 63.5141 10.9321C61.4896 8.68004 58.4434 7.24706 55.0366 7.24706C48.9412 7.24706 44 11.8343 44 17.4928C44 23.1514 48.9412 27.7386 55.0366 27.7386C58.4306 27.7386 61.4668 26.3164 63.4913 24.0788C63.6569 23.8958 63.631 23.6154 63.4421 23.4561L59.7277 20.3245C59.5205 20.1499 59.2068 20.1944 59.0322 20.4009C58.1027 21.4999 56.6584 22.2059 55.0366 22.2059C52.2327 22.2059 49.9598 20.0958 49.9598 17.4928C49.9598 14.8899 52.2327 12.7798 55.0366 12.7798C56.6671 12.7798 58.1181 13.4934 59.047 14.6026C59.2211 14.8105 59.5357 14.8561 59.7437 14.6813L63.4635 11.5542Z" fill="white"/>
<path d="M32.582 19.791C32.7961 17.8854 34.1512 16.5762 35.7204 15.5853L36 15.4082L30.7624 8.79699L30.652 8.77681C30.0274 8.658 29.3984 8.55039 28.7716 8.4495C26.8619 8.19618 25.5114 8.02356 24.3299 7.90922C24.0053 7.88008 23.6806 7.85542 23.3559 7.83076L23.3244 7.82852L23.0313 7.80834L22.9546 7.80386L22.8757 7.79937C22.1542 7.75005 21.4327 7.71418 20.709 7.69176H20.7022V7.68952C20.6165 7.68728 20.5308 7.68504 20.4429 7.6828C20.3708 7.68055 20.2986 7.68055 20.2265 7.67831C17.5795 7.62227 15.2392 7.71194 13.5752 7.81282C12.9958 7.84869 9.26661 8.21859 8.57218 8.2993C8.53385 8.30378 8.49552 8.31051 8.45945 8.31499C7.6117 8.42933 5.87111 8.69835 5.2353 8.79699L0 15.4082L0.277322 15.5853C1.8443 16.5762 3.2016 17.8854 3.41805 19.791C3.62999 21.6584 2.61539 23.833 1.90518 25.5323C0.951462 27.8167 0.0631302 30.0698 0.0631302 32.5762C0.0631302 33.1142 0.146552 33.6478 0.306632 34.1611C0.825202 35.8291 2.12163 37.1719 3.48343 38.239C5.07296 39.4833 6.91501 40.5033 8.70295 41.4471C10.563 42.4268 12.4863 43.3549 14.281 44.44C15.4782 45.1663 17.07 46.2357 17.7306 47.4889L17.9989 48L18.2672 47.4889C18.9278 46.2357 20.5218 45.1663 21.7168 44.44C23.5115 43.3549 25.4347 42.4268 27.2948 41.4471C29.0827 40.5033 30.927 39.4833 32.5143 38.239C33.8784 37.1719 35.1725 35.8291 35.6934 34.1611C35.8535 33.6478 35.9346 33.1142 35.9346 32.5762C35.9346 30.0698 35.0485 27.8167 34.0948 25.5323C33.3846 23.833 32.37 21.6584 32.582 19.791Z" fill="#FEFEFE"/>
<path d="M1.75414 32.5985V32.6165C1.7564 32.9752 1.81051 33.3249 1.91873 33.6701C2.77099 36.4007 7.07061 38.6672 9.47406 39.9361C11.3747 40.9382 13.334 41.8842 15.1693 42.9939C16.0982 43.5589 17.1624 44.1956 17.9989 44.9959C18.8354 44.1956 19.7846 43.5589 20.7157 42.9939C22.5488 41.8842 24.5081 40.9382 26.4087 39.9361C28.9768 38.5798 34.1287 35.9523 34.1287 32.5985C34.1287 30.3522 33.2674 28.2449 32.4129 26.2003C31.5516 24.1378 30.5596 21.8512 30.8188 19.5735C31.0353 17.6567 32.0927 16.2286 33.5154 15.0562L29.7456 10.3528C25.9623 9.67351 22.1475 9.35965 18.3326 9.35965C14.2562 9.35965 10.1753 9.71611 6.12816 10.3662L2.39672 15.0068C3.81489 16.1793 4.86781 17.65 5.08426 19.5645C5.34354 21.8467 4.33346 24.1378 3.46993 26.2003C2.61542 28.2449 1.75414 30.3522 1.75414 32.5985Z" fill="url(#paint0_radial_5246_4347)"/>
<path d="M23.8948 37.1809L23.5882 38.1583L22.5894 38.1561L23.3988 38.7614L23.0876 39.7388L23.8948 39.1335L24.6997 39.7388L24.3908 38.7614L25.198 38.1561L24.2014 38.1583L23.8948 37.1809Z" fill="#FEFEFE"/>
<path d="M17.8771 39.5998L17.5705 40.5795L16.5717 40.5773L17.3788 41.1803L17.07 42.1578L17.8771 41.5525L18.682 42.1578L18.3731 41.1803L19.1803 40.5773L18.1838 40.5795L17.8771 39.5998Z" fill="#FEFEFE"/>
<path d="M11.8009 37.1809L12.1075 38.1583L13.1041 38.1561L12.2969 38.7614L12.6058 39.7388L11.8009 39.1335L10.9937 39.7388L11.3049 38.7614L10.4977 38.1561L11.492 38.1583L11.8009 37.1809Z" fill="#FEFEFE"/>
<path d="M7.01655 34.002L7.32318 34.9816L8.31973 34.9794L7.51031 35.5825L7.82145 36.5599L7.01655 35.9546L6.20938 36.5599L6.52052 35.5825L5.7111 34.9794L6.70991 34.9816L7.01655 34.002Z" fill="#FEFEFE"/>
<path d="M4.88586 29.2246L4.57923 30.2043L3.58042 30.202L4.38984 30.8051L4.07869 31.7848L4.88586 31.1772L5.69302 31.7848L5.38188 30.8051L6.18905 30.202L5.19249 30.2043L4.88586 29.2246Z" fill="#FEFEFE"/>
<path d="M5.97255 23.2636L5.66591 24.241H4.66936L5.47652 24.8418L5.16764 25.8215L5.97255 25.214L6.77746 25.8215L6.46857 24.8418L7.27573 24.241H6.27918L5.97255 23.2636Z" fill="#FEFEFE"/>
<path d="M6.81359 16.6075L6.50695 17.5872L5.5104 17.5849L6.31756 18.1902L6.00642 19.1654L6.81359 18.5624L7.62075 19.1654L7.30961 18.1902L8.11677 17.5849L7.12022 17.5872L6.81359 16.6075Z" fill="#FEFEFE"/>
<path d="M8.15505 25.6668H27.7141C27.8765 19.4569 24.605 13.0811 17.9357 13.0811C11.2642 13.0811 7.99497 19.4569 8.15505 25.6668Z" fill="url(#paint1_radial_5246_4347)"/>
<path d="M8.15278 25.0211H13.6564V25.2543H8.15053V25.2027C8.15053 25.1422 8.15278 25.0817 8.15278 25.0211Z" fill="#B49700"/>
<path d="M8.2002 23.9607L13.6835 25.0279L13.6362 25.2543L8.18442 24.1939C8.18893 24.1154 8.19344 24.0392 8.2002 23.9607Z" fill="#B49700"/>
<path d="M8.31965 22.8555L13.7083 25.0391L13.6158 25.2543L8.28808 23.0954C8.2971 23.0147 8.30837 22.9362 8.31965 22.8555Z" fill="#B49700"/>
<path d="M8.53832 21.6629L13.7285 25.0525L13.5978 25.2453L8.48421 21.9072C8.50225 21.8265 8.52028 21.7458 8.53832 21.6629Z" fill="#B49700"/>
<path d="M8.89686 20.3357L13.7466 25.0749L13.5798 25.2386L8.81795 20.5868C8.84501 20.5038 8.86981 20.4186 8.89686 20.3357Z" fill="#B49700"/>
<path d="M9.47407 18.8382L13.7624 25.0951L13.5663 25.2252L9.3636 19.0915C9.39967 19.0063 9.438 18.9211 9.47407 18.8382Z" fill="#B49700"/>
<path d="M10.3916 17.1837L13.7714 25.122L13.5527 25.2095L10.2361 17.4236C10.2879 17.3429 10.3375 17.2621 10.3916 17.1837Z" fill="#B49700"/>
<path d="M11.785 15.5046L13.7759 25.149L13.5436 25.1916L11.5843 15.7019C11.6497 15.6346 11.7174 15.5673 11.785 15.5046Z" fill="#B49700"/>
<path d="M13.7308 14.0855L13.7737 25.1736H13.5392L13.4941 14.2178C13.573 14.1729 13.6497 14.1303 13.7308 14.0855Z" fill="#B49700"/>
<path d="M16.1388 13.2447L13.7691 25.2005L13.5369 25.1534L15.8885 13.2963C15.9697 13.2761 16.0553 13.2604 16.1388 13.2447Z" fill="#B49700"/>
<path d="M18.8038 13.117L13.7579 25.2229L13.5369 25.1377L18.5535 13.0968C18.6369 13.1036 18.7203 13.108 18.8038 13.117Z" fill="#B49700"/>
<path d="M21.4733 13.7671L13.7421 25.2453L13.5437 25.1153L21.2501 13.6774C21.3245 13.7066 21.3989 13.738 21.4733 13.7671Z" fill="#B49700"/>
<path d="M23.8137 15.2512L13.7219 25.2633L13.555 25.0996L23.6378 15.0988C23.6964 15.1503 23.7573 15.1997 23.8137 15.2512Z" fill="#B49700"/>
<path d="M25.6038 17.372L13.6992 25.279L13.5662 25.0839L25.4753 17.1747C25.5204 17.2397 25.5632 17.307 25.6038 17.372Z" fill="#B49700"/>
<path d="M26.81 19.8492L13.6744 25.2879L13.582 25.0727L26.7289 19.6317C26.7559 19.7035 26.783 19.7775 26.81 19.8492Z" fill="#B49700"/>
<path d="M27.4955 22.4879L13.6474 25.2924L13.6 25.0638L27.4549 22.2592C27.4684 22.3354 27.4842 22.4117 27.4955 22.4879Z" fill="#B49700"/>
<path d="M27.7231 25.1848L13.6203 25.2902L13.618 25.057L27.7186 24.9517C27.7209 25.0301 27.7231 25.1064 27.7231 25.1848Z" fill="#B49700"/>
<path d="M13.6564 21.6472C15.6518 21.6472 17.2684 23.23 17.2684 25.1781H10.0422C10.0422 23.23 11.6611 21.6472 13.6564 21.6472Z" fill="#B49700"/>
<path d="M13.6564 21.9521C15.4872 21.9521 16.973 23.3622 16.973 25.1019H10.3421C10.3421 23.3622 11.8256 21.9521 13.6564 21.9521Z" fill="#F8C100"/>
<path d="M26.5575 19.5825H26.5372C24.2239 19.6071 24.4381 22.2906 22.8396 22.461C22.463 22.4991 21.5228 22.183 20.869 22.0777C19.9829 21.9387 18.2536 24.0258 17.8433 25.1579H27.7209C27.7141 23.2367 27.3759 21.3199 26.7153 19.5982C26.6634 19.5892 26.6116 19.5825 26.5575 19.5825Z" fill="url(#paint2_radial_5246_4347)"/>
<path d="M22.5082 24.9942H27.7187C27.7097 24.2791 27.6556 23.5639 27.5519 22.8623C27.0491 22.7972 26.278 22.6089 25.7369 22.5462H25.5384C24.7042 22.6403 24.1383 23.9921 22.5082 24.9942Z" fill="url(#paint3_linear_5246_4347)"/>
<path d="M8.14832 25.261C8.15057 25.7229 8.17312 26.1847 8.21145 26.6442C10.4751 26.716 13.3949 26.5815 13.4648 27.0097C13.4761 27.0657 13.5956 27.0366 13.7015 27.0074C13.8075 26.976 13.8999 26.9447 13.8436 27.0097C12.8064 28.1508 14.0916 30.1236 15.4015 31.1347C19.4779 34.2777 17.9876 36.0465 14.6868 36.7549C15.6608 37.1226 16.743 37.3266 17.9358 37.3266C21.701 37.3266 24.3728 35.3179 25.9646 32.4618C23.525 31.5001 19.3923 30.9979 18.4363 28.8413C18.1184 28.1328 20.0664 26.79 20.3685 26.2093C20.957 25.0884 17.1331 25.326 17.2368 25.2476L8.21821 25.2005C8.24752 25.2027 8.21821 25.2229 8.14832 25.261Z" fill="url(#paint4_linear_5246_4347)"/>
<path d="M15.9945 25.0749H15.7645C13.5054 25.0794 9.8618 25.2027 8.15053 25.2027L8.15059 25.1377C7.6433 27.8032 8.80895 31.9372 11.2395 34.5175C13.0522 36.4433 15.5616 37.3736 16.8671 37.4028H16.9798C17.0655 37.3983 17.1444 37.3938 17.2188 37.3826C17.3022 37.3714 17.3834 37.3759 17.4533 37.3826C17.575 37.3916 17.6742 37.405 17.7193 37.3176C20.2288 32.6165 11.0794 27.3549 17.5795 25.2632C18.0102 25.122 17.2616 25.0794 15.9945 25.0749Z" fill="url(#paint5_linear_5246_4347)"/>
<path d="M18.522 30.6101C20.1273 32.278 23.0696 32.4999 25.2296 33.6119C26.8755 31.3566 27.7052 28.3413 27.721 25.3148L17.8794 25.2005C16.9798 26.5904 16.4951 28.5095 18.522 30.6101Z" fill="url(#paint6_linear_5246_4347)"/>
<path d="M12.1932 32.1345C10.8922 29.5048 11.5596 27.8773 13.3678 26.8752C12.5449 28.3212 13.7466 29.5407 15.485 30.8925C14.2562 31.1414 13.0995 31.5046 12.2383 32.1099L12.1932 32.1345Z" fill="#FEFEFE"/>
<path d="M13.3137 26.9402C12.493 28.3794 13.6631 29.5385 15.3947 30.8813C14.1727 31.1302 13.0634 31.4911 12.2044 32.0919C10.9711 29.6281 11.5099 27.9378 13.3137 26.9402ZM14.9776 32.5134C15.1061 32.3923 15.1061 32.269 14.9776 32.1479H14.4184L14.423 32.1166V31.8117C14.423 31.7422 14.3621 31.6861 14.2899 31.6861H13.981C13.9111 31.6861 13.8503 31.7422 13.8503 31.8117V32.1166L13.857 32.1479H12.5832C13.4354 31.6211 14.4771 31.3274 15.4466 31.1279L15.9854 31.0203L15.5548 30.6863C14.7905 30.0899 13.4151 29.0385 13.3092 28.0118C13.2753 27.6732 13.37 27.3571 13.5369 27.0635L13.9856 26.2788L13.1874 26.7205C10.9282 27.9692 10.9057 30.0317 11.9451 32.1479H11.6182V31.9552H11.1808V32.1479H10.6893C10.5607 32.2466 10.5607 32.3677 10.6893 32.5134C12.0668 32.7398 13.4985 32.7398 14.9776 32.5134Z" fill="#3F4446"/>
<path d="M18.3664 17.1635C19.2186 17.1456 20.0731 17.1747 20.8713 17.4594C21.4891 17.6836 21.7281 17.6747 22.3007 18.2082L21.4304 18.7485C20.5579 17.7845 19.4644 17.6186 18.3416 17.2958C17.8703 17.1613 17.8884 17.1725 18.3664 17.1635Z" fill="#FEFEFE"/>
<path d="M21.9152 18.2015C22.6187 18.2508 23.4213 17.7262 23.7573 17.659C23.87 17.6411 24.0819 17.8428 23.9827 17.937C23.9173 17.9975 23.5363 18.1387 23.4281 18.1948C23.3582 18.2307 23.9669 17.9168 24.0458 17.9258C24.2172 17.9527 24.3209 18.2307 24.2465 18.2867C24.2465 18.2867 23.7031 18.4324 23.5408 18.5064C23.3897 18.5714 23.9917 18.3002 24.2465 18.2867C24.3367 18.2822 24.4382 18.5647 24.3096 18.6476C23.9286 18.892 23.4213 18.901 23.0177 19.0781C23.1733 19.6811 23.5724 20.3694 23.5521 20.9926C23.5205 21.9656 22.9794 22.8735 22.8148 23.7837C22.7494 24.1379 22.7968 24.2298 22.7224 23.8173C22.5082 22.6314 22.4248 20.5263 21.8656 19.7461C21.6379 19.6027 21.4665 19.4794 21.1847 19.383C21.0381 19.3202 20.8149 19.3202 20.5308 19.2978C20.3775 19.3381 20.0078 19.4188 19.8567 19.4614C19.9063 19.1767 20.1295 18.3786 20.6706 18.4459L21.9152 18.2015Z" fill="#FEFEFE"/>
<path d="M20.6774 18.7261C20.6142 18.7238 20.5556 18.7732 20.5511 18.8405C20.5466 18.9078 20.5962 18.9661 20.6616 18.9706C20.727 18.9751 20.7834 18.9257 20.7879 18.8584C20.7925 18.7889 20.7428 18.7328 20.6774 18.7261Z" fill="#3F4446"/>
<path d="M22.1542 29.1618L22.1339 29.5003L22.5961 29.8344L22.5826 29.4779L22.1542 29.1618ZM22.1339 29.7828L22.1136 30.1146L22.6119 30.4778L22.6006 30.128L22.1339 29.7828ZM22.1113 30.4038L22.0933 30.7401L22.6322 31.1302L22.6209 30.7782L22.1113 30.4038ZM22.0933 31.0203L22.073 31.3476L22.6547 31.778L22.6434 31.4283L22.0933 31.0203ZM22.0708 31.6413L22.055 31.9708L22.6795 32.4215L22.666 32.0807L22.0708 31.6413ZM22.0505 32.26L22.0324 32.5784L22.6975 33.0761L22.693 32.7308L22.0505 32.26ZM22.0279 32.881L22.0121 33.2016L22.7201 33.7128L22.7066 33.3787L22.0279 32.881ZM22.0054 33.4975L21.9941 33.8159L22.7291 34.3539L22.7223 34.0288L22.0054 33.4975ZM21.9851 34.1185L21.9738 34.4279L22.0099 34.4526H22.4383L21.9851 34.1185ZM22.1745 28.57L22.1542 28.8838L22.5735 29.1887L22.5645 28.8323L22.1902 28.552L22.1745 28.57Z" fill="#AD957A"/>
<path d="M28.2507 8.64452C28.1989 8.53243 26.1291 3.79094 26.1291 3.79094C26.1291 3.79094 22.5397 3.33585 18.2401 3.22824C17.9628 3.22152 17.6854 3.21927 17.4104 3.21703H17.3247C13.3723 3.21703 9.81897 3.82681 9.81897 3.82681L7.79881 8.60865C7.79881 8.60865 12.8515 8.02129 18.2874 7.90471C23.6806 7.78814 28.1786 8.60641 28.2507 8.64452Z" fill="url(#paint7_linear_5246_4347)"/>
<path d="M8.19787 3.01301L9.07042 3.86491C9.07042 3.86491 13.5662 3.11165 17.8455 3.11165C22.1271 3.11165 26.8934 3.86491 26.8934 3.86491L27.4999 3.30221L27.669 3.01301C27.669 3.01301 23.7076 2.17456 18.2716 2.17456C12.8334 2.17456 8.19787 3.01301 8.19787 3.01301Z" fill="url(#paint8_linear_5246_4347)"/>
<path d="M27.5721 3.04887H27.5811C27.6081 3.04663 27.6352 3.03766 27.6555 3.01749C27.6848 2.99507 27.7006 2.96368 27.7006 2.92781V2.81572C27.7998 2.62965 27.899 2.44358 27.9982 2.2575L28.0658 2.12748C28.0749 2.11178 28.0816 2.09161 28.0816 2.07592V1.16125C28.0794 1.1052 28.0388 1.05812 27.9802 1.04467L27.6059 0.972931C26.9768 0.847388 26.3252 0.719603 25.7052 0.616479C25.6691 0.614237 25.6331 0.620962 25.606 0.643381C25.5767 0.665799 25.5609 0.697185 25.5609 0.733054L25.5429 1.22177L25.5474 1.5177C25.0333 1.4482 24.5486 1.39888 24.0345 1.34283C23.9015 1.32938 23.764 1.31369 23.6242 1.30024V0.473001C23.6242 0.41023 23.5768 0.358668 23.5137 0.351942C22.7809 0.284687 22.0324 0.224157 21.2816 0.177079C21.2455 0.174837 21.214 0.186046 21.1892 0.210706C21.1644 0.230883 21.1508 0.26451 21.1508 0.298138V1.11865C20.5015 1.09175 19.8386 1.06933 19.1712 1.05812V0.224157C19.1712 0.156902 19.1171 0.10534 19.0472 0.10534C18.7384 0.100856 18.4317 0.0986143 18.1251 0.0986143C17.6922 0.0986143 17.2525 0.100856 16.8196 0.107582C16.7497 0.107582 16.6956 0.161386 16.6956 0.228641V1.0626C16.0486 1.0783 15.3857 1.10072 14.7161 1.1321V0.309347C14.7161 0.27572 14.7048 0.242092 14.6777 0.219674C14.6529 0.197255 14.6214 0.183804 14.5853 0.186046C13.8548 0.230883 13.104 0.293654 12.3554 0.367635C12.2901 0.372119 12.2404 0.423681 12.2404 0.488694V1.31817C11.5686 1.39215 10.9914 1.45941 10.3556 1.54684V0.710636C10.3556 0.674767 10.342 0.641139 10.3127 0.616479C10.2879 0.59406 10.2473 0.585093 10.2135 0.589577C9.73779 0.668041 9.22598 0.773407 8.7277 0.876532C8.4346 0.937062 8.15728 0.995349 7.88672 1.04467C7.83035 1.05812 7.78751 1.10744 7.78751 1.16573V2.07143C7.78751 2.08937 7.79202 2.10954 7.80104 2.12748C7.92279 2.36063 8.04454 2.59154 8.1663 2.82693C8.18433 2.86056 8.22266 2.88298 8.26325 2.88746C8.28128 2.89194 8.29932 2.88746 8.31736 2.88298C11.5866 2.36735 14.6371 2.11627 17.6403 2.1073C20.7923 2.09609 23.8857 2.47496 27.5563 3.04663L27.5721 3.04887Z" fill="url(#paint9_linear_5246_4347)"/>
<path d="M24.4065 1.2599L25.4616 1.42131L25.4729 0.786871L24.4065 1.2599Z" fill="#D3AC5F"/>
<path d="M20.4158 0.981887L21.0313 1.02448L21.0201 0.407977L20.4158 0.981887Z" fill="#D2A956"/>
<path d="M14.9663 0.416956L14.955 1.03122L15.5683 0.990866L14.9663 0.416956Z" fill="#EAD8B3"/>
<path d="M10.5269 1.43477L11.6317 1.29129L10.5269 0.816022V1.43477Z" fill="#EAD8B3"/>
<path d="M13.2866 4.05772C13.7736 4.08687 14.211 4.38951 14.1749 4.78408C14.1434 5.17864 13.9089 7.00574 13.9089 7.00574L11.9518 7.14697L12.3058 4.63612C12.3058 4.63612 12.8018 4.03306 13.2866 4.05772Z" fill="#EAD8B3"/>
<path d="M12.7884 4.87153C12.7275 5.53735 12.6396 5.99469 12.5787 6.66276C12.9236 6.63586 13.1671 6.63137 13.4354 6.60895C13.5166 5.94985 13.5843 5.46337 13.6677 4.80427C13.4986 4.41868 13.0544 4.47248 12.7884 4.87153Z" fill="#745841"/>
<path d="M22.542 4.06896C22.055 4.09586 21.6176 4.39851 21.6514 4.79308C21.6852 5.18764 21.9197 7.01474 21.9197 7.01474L23.8767 7.15597L23.5205 4.64511C23.5205 4.64511 23.0267 4.04206 22.542 4.06896Z" fill="#EAD8B3"/>
<path d="M23.25 6.66275C23.1891 5.99468 23.1012 5.53735 23.0403 4.86928C22.7742 4.47248 22.3301 4.42092 22.161 4.80427C22.2444 5.46337 22.3098 5.94985 22.3932 6.60671C22.6615 6.63361 22.905 6.63585 23.25 6.66275Z" fill="#745841"/>
<path d="M19.3764 7.80607L16.3327 7.84642C16.3327 7.84642 16.389 6.55736 16.5243 6.14038C16.6618 5.7234 16.9437 5.2571 17.2819 5.05533C17.6178 4.85357 18.0146 4.75268 18.3844 4.88495C18.7519 5.01946 18.9976 5.2145 19.2366 5.61803C19.4734 6.01932 19.5613 6.40268 19.6357 6.85329C19.7101 7.30838 19.6357 7.82848 19.6357 7.82848L19.3764 7.80607Z" fill="#EAD8B3"/>
<path d="M19.2186 7.75002L19.2006 7.50565C19.1285 6.65151 19.0653 5.28624 17.9876 5.28624C16.9279 5.28624 16.8761 6.69859 16.8107 7.53928L16.7994 7.74105L19.2186 7.75002Z" fill="#745841"/>
<path d="M15.7487 5.38265L15.8299 4.42987C17.2683 4.38279 18.7113 4.37831 20.1498 4.42539L20.2309 5.3692L19.2547 5.34902C19.3088 5.42973 19.3584 5.51492 19.399 5.60235L21.6198 5.69427C21.6604 5.99467 21.6987 6.29508 21.737 6.59773L19.6673 6.52151L19.6853 6.62911C19.5275 5.64495 19.1577 4.70113 17.9966 4.70113C17.3901 4.70113 17.0045 4.96567 16.7475 5.35799L15.7487 5.38265ZM15.4894 5.39386C15.0723 5.40731 14.6574 5.42749 14.2403 5.44767C14.2651 5.25935 14.2899 5.07104 14.3125 4.88272L14.335 4.7101L14.2651 4.55093L14.2426 4.50609C14.6845 4.47919 15.1287 4.45902 15.5706 4.44108L15.4894 5.39386ZM14.0848 4.26398C13.963 4.12274 13.8052 4.01513 13.618 3.95236L13.706 3.43898C15.0948 3.32689 16.4882 3.2686 17.8861 3.26412V4.14067C16.6167 4.1474 15.3496 4.18551 14.0848 4.26398ZM13.9901 4.84461C13.9134 5.44318 13.8322 6.04624 13.7556 6.64705L13.724 6.90038L13.4647 6.92279C13.1806 6.95194 12.892 6.95642 12.6034 6.98108L12.2202 7.01247L12.254 6.6336C12.3103 6.03503 12.4095 5.44094 12.4659 4.84013L12.4727 4.76391L12.5155 4.69441C12.7207 4.38728 13.095 4.14292 13.4828 4.24604C13.7082 4.30657 13.8728 4.46798 13.9653 4.67872L14.0013 4.75718L13.9901 4.84461ZM12.1412 4.81098C12.1164 5.07776 12.0849 5.34006 12.0488 5.60459C11.67 5.63822 11.2912 5.67409 10.9147 5.7122L11.1582 4.76615C11.4897 4.73028 11.8233 4.69665 12.1548 4.66526L12.1412 4.81098ZM11.9316 6.60445L11.9158 6.75017C10.7997 6.83536 9.68368 6.95194 8.57213 7.09542L8.95317 6.20092L8.96895 6.19868C9.98129 6.06193 10.9981 5.94984 12.0172 5.86016C11.9834 6.10901 11.9519 6.35561 11.9316 6.60445ZM9.48076 4.97464L9.49429 4.9724L10.8854 4.79753L10.6419 5.74135L9.07041 5.92966L9.48076 4.97464ZM9.95874 3.85596C11.1199 3.69006 12.2788 3.55555 13.4422 3.45916L13.3655 3.90528C12.9574 3.88286 12.5696 4.10256 12.3194 4.4209L9.598 4.70338L9.95874 3.85596ZM9.16962 3.66765C8.88779 3.4614 8.71192 3.33361 8.43009 3.12736C15.0836 2.08267 20.8284 2.10509 27.5405 3.14754L26.9115 3.68334L23.6693 3.26187C18.8443 2.75746 14.2426 2.88525 9.16962 3.66765ZM8.37598 2.83592C7.91378 1.95937 8.01298 2.27771 8.01298 1.23525C8.75025 1.09402 9.48978 0.96399 10.2293 0.845173V1.76881C10.9688 1.66344 11.7084 1.57601 12.4479 1.49755V0.560459C13.1874 0.488721 13.9269 0.430433 14.6665 0.383354V1.32941C15.406 1.29578 16.1455 1.26888 16.8873 1.25319V0.302648C17.6246 0.293681 18.3618 0.293681 19.1036 0.300406V1.2487C19.8431 1.26215 20.5804 1.28233 21.3222 1.31596V0.372145C22.0595 0.419224 22.799 0.477511 23.5408 0.54925V1.47961C24.278 1.55808 25.0176 1.64999 25.7593 1.75536V0.836205C26.4966 0.957265 27.2384 1.09178 27.9779 1.23525C27.9779 2.30685 28.0794 1.93695 27.6014 2.85162C24.3164 2.34048 21.0268 2.04231 17.7012 2.05128C14.5718 2.06025 11.4716 2.34272 8.38049 2.8292L8.37598 2.83592ZM10.5382 0.833964L11.5866 1.28681C11.2371 1.32941 10.8877 1.37425 10.5382 1.41908V0.833964ZM14.9753 0.434917L15.5615 0.98865C15.3654 0.997618 15.1715 1.00434 14.9753 1.01331V0.434917ZM21.0133 0.434917V0.99986C20.8194 0.993134 20.63 0.986409 20.4384 0.979683L21.0133 0.434917ZM25.4617 0.811545L25.4504 1.40563C25.11 1.3608 24.7695 1.31596 24.4426 1.25543L25.4617 0.811545ZM26.3365 4.69665L26.2937 4.68992L23.4889 4.394C23.2702 4.13171 22.9591 3.94115 22.6209 3.90977L22.5442 3.45916C23.6873 3.55555 24.8259 3.68558 25.9645 3.84924L26.3365 4.69665ZM26.8709 5.90276L26.8258 5.89603L25.3309 5.71444L25.092 4.79081L26.4583 4.96791L26.8709 5.90276ZM27.3872 7.06851L27.3421 7.06403C26.2012 6.91159 25.0559 6.80174 23.9083 6.7143L23.897 6.60445C23.8722 6.34216 23.8406 6.07986 23.8068 5.81757C24.871 5.90724 25.9352 6.02158 26.9926 6.17402L27.3872 7.06851ZM23.6873 4.81098L23.6715 4.65406L23.6625 4.63836C24.0503 4.67647 24.4359 4.71458 24.8214 4.76166L25.0581 5.68306C24.6298 5.64046 24.2014 5.60011 23.773 5.56424C23.7414 5.3154 23.7099 5.06431 23.6873 4.81098ZM23.2251 6.98108C22.9365 6.95642 22.6479 6.95194 22.3638 6.92279L22.1045 6.90038L22.0707 6.64705C21.9941 6.04624 21.9152 5.44318 21.8385 4.84461L21.8272 4.75718L21.861 4.67872C21.9535 4.46798 22.1181 4.30657 22.3458 4.24604C22.7336 4.14292 23.1056 4.38728 23.3108 4.69441L23.3559 4.76391L23.3626 4.84013C23.4168 5.44094 23.5182 6.03503 23.5723 6.6336L23.6084 7.01247L23.2251 6.98108ZM21.5161 4.88272C21.5386 5.06207 21.5612 5.24366 21.5837 5.42076C21.2185 5.40283 20.8555 5.38938 20.488 5.37593L20.409 4.43436C20.8036 4.45005 21.1982 4.46574 21.595 4.48816L21.5634 4.55093L21.4935 4.7101L21.5161 4.88272ZM21.7573 4.24828C20.5533 4.17879 19.3494 4.14292 18.1431 4.14067V3.26412C19.523 3.2686 20.9073 3.32689 22.2804 3.43674L22.3638 3.91649L22.2624 3.93891C22.0595 3.99271 21.8904 4.10256 21.7573 4.24828ZM17.9966 4.95222C19.3967 4.95222 19.4305 6.6179 19.541 7.65812C19.5388 7.65812 19.5545 7.70968 19.5523 7.70968L19.5388 7.74107H19.8116L19.8025 7.6626C19.7777 7.38461 19.7507 7.07972 19.7079 6.77483L20.3527 6.78828L20.4384 7.67829H20.4361L20.4541 7.74107H20.7044L20.6976 7.68726H20.6954L20.6097 6.79277C20.9975 6.80622 21.3831 6.82191 21.7686 6.8376L21.8137 7.19182L22.33 7.24114C22.6186 7.26804 22.9072 7.27476 23.1958 7.29718L23.9669 7.35995L23.9308 6.96763C24.4291 7.0035 24.9251 7.04834 25.4211 7.09542L25.6624 8.03251L25.6939 8.17598L25.9442 8.18495L25.9059 7.94731L25.6939 7.12456L27.5067 7.33978L27.9012 8.23427L27.9035 8.23651L27.9396 8.3217H27.9373L27.9666 8.3912C27.9666 8.3912 28.1357 8.41362 28.2733 8.43379L28.2778 8.37102C28.2733 8.36878 28.2733 8.36878 28.271 8.36878L26.2937 3.89856L26.9926 4.00392L27.7276 3.38966L28.253 2.28219C28.3432 2.1006 28.2868 1.25991 28.2868 0.98865C27.881 0.907944 25.6263 0.455093 25.4504 0.479753L23.8474 1.1949V0.273504L21.0133 0.0493204V0.0605296L20.037 0.966232L19.4125 0.950539V0L16.5761 0.00224184V0.957265L15.9606 0.977441L14.9753 0.0605296L12.1412 0.286955V1.19714L10.5382 0.488721C10.3533 0.466302 8.1167 0.907944 7.70409 0.986409C7.70409 1.25767 7.64773 2.09388 7.73791 2.27771C8.39402 3.61384 7.91829 3.12512 9.08619 3.98375L9.63408 3.90304L7.69959 8.40913C7.68831 8.445 7.69508 8.43379 7.68831 8.43604L7.69282 8.49656L7.98367 8.45621L8.01975 8.39344H8.00622L8.45489 7.36668L8.47068 7.36219L10.2789 7.15146L10.0309 8.11769L10.0219 8.15132L10.0038 8.33739H10.2406L10.3556 7.88454L10.5495 7.12456C10.9981 7.07972 11.4468 7.03937 11.8932 7.0035L11.8617 7.35995L12.6328 7.29718C12.9191 7.27476 13.2077 7.26804 13.4963 7.24114L14.0149 7.19182L14.0554 6.86227C14.4928 6.84209 14.9302 6.82415 15.3677 6.8107L15.3 7.51016L15.2707 7.84643H15.5255L15.5367 7.7321C15.5345 7.7321 15.5413 7.70295 15.5413 7.70295L15.6269 6.80173L16.2898 6.7838L16.3304 6.53047L14.087 6.62463C14.1253 6.32198 14.1659 6.01933 14.2043 5.71893L16.6077 5.61132C16.3326 6.19644 16.265 6.95866 16.2041 7.55275L16.1793 7.79487H16.4386L16.4499 7.66708C16.5581 6.64705 16.6257 4.95222 17.9966 4.95222Z" fill="#745841"/>
<path d="M15.0994 20.6967H12.2089V25.0212H15.1084L15.0994 20.6967Z" fill="url(#paint10_linear_5246_4347)"/>
<path d="M14.0374 22.2413H13.3475V22.9026H14.0374V22.2413Z" fill="#3F4446"/>
<path d="M13.6474 17.4594C13.4715 17.4617 13.3791 17.6814 13.2438 17.8495C13.104 18.0266 12.9665 18.1365 12.9665 18.1365L12.9507 19.9053L13.0183 19.986L12.98 20.6115L14.211 20.6294L14.1705 19.9838L14.4297 19.93L14.4004 19.3157L14.3734 18.3069C14.3734 18.3069 14.0667 18.0087 13.9427 17.8271C13.83 17.6635 13.9044 17.4594 13.6474 17.4594Z" fill="url(#paint11_linear_5246_4347)"/>
<path d="M13.0296 19.2215H14.2088V18.679H13.0296V19.2215Z" fill="#F8C300"/>
<path d="M17.9989 47.3521C15.4804 42.568 0.365253 39.7545 0.365253 32.5762C0.365253 25.3978 7.9995 20.1205 0.441911 15.3364L5.4044 9.06601C14.299 7.57967 22.6863 7.5707 30.5933 9.06601L35.5558 15.3364C27.9982 20.1205 35.6325 25.3978 35.6325 32.5762C35.6325 39.7545 20.5173 42.568 17.9989 47.3521ZM32.582 19.791C32.7961 17.8854 34.1512 16.5762 35.7204 15.5853L35.9977 15.4082L30.7624 8.79699L30.652 8.77681C30.0274 8.658 29.3984 8.55039 28.7716 8.45175C26.8619 8.19394 25.5114 8.02356 24.3277 7.90922C24.003 7.88008 23.6806 7.85542 23.3559 7.83076L23.3244 7.82852L23.0313 7.81058L22.9546 7.80386L22.8757 7.79937C22.1542 7.75229 21.4327 7.71418 20.709 7.69176H20.7022C20.6165 7.68728 20.5308 7.68504 20.4429 7.6828C20.3708 7.68055 20.2986 7.68055 20.2265 7.67831C17.5795 7.62227 15.2392 7.71194 13.573 7.81282C12.9958 7.84869 9.26661 8.21859 8.57218 8.2993C8.53385 8.30378 8.49552 8.30827 8.45719 8.31499C7.6117 8.42933 5.87111 8.69835 5.2353 8.79699L0 15.4082L0.277322 15.5853C1.8443 16.5762 3.2016 17.8854 3.41805 19.791C3.62773 21.6584 2.61539 23.833 1.90518 25.5323C0.951463 27.8167 0.0631302 30.0675 0.0631302 32.5762C0.0631302 33.1142 0.144298 33.6478 0.306632 34.1611C0.825202 35.8291 2.11937 37.1719 3.48343 38.239C5.07296 39.4855 6.91501 40.5033 8.70295 41.4471C10.563 42.4268 12.4885 43.3549 14.2832 44.44C15.4782 45.1663 17.07 46.2357 17.7306 47.4866L17.9989 48L18.2672 47.4866C18.9278 46.2357 20.5196 45.1663 21.7168 44.44C23.5115 43.3549 25.4347 42.4268 27.2948 41.4471C29.0827 40.5033 30.927 39.4855 32.5143 38.239C33.8784 37.1719 35.1725 35.8291 35.6934 34.1611C35.8535 33.6478 35.9346 33.1142 35.9346 32.5762C35.9346 30.0675 35.0463 27.8167 34.0948 25.5323C33.3846 23.833 32.37 21.6584 32.582 19.791Z" fill="#3F4446"/>
<path d="M30.6722 37.3827L26.1471 32.9438C29.4908 27.3953 28.6453 18.4324 23.5949 14.5899C21.9647 13.3502 20.0505 12.7583 17.9898 12.7583C14.3824 12.7583 11.7331 14.5428 10.0444 17.1523L4.88126 12.0903L6.22277 10.4223C14.0329 9.17138 21.9512 9.00773 29.7478 10.4089L33.477 15.045C32.0633 16.213 31.0127 17.6792 30.7962 19.587C30.5392 21.8579 31.5493 24.1401 32.4083 26.1959C33.2583 28.2337 34.1151 30.3343 34.1151 32.5694C34.1151 34.4279 32.5255 36.0645 30.6722 37.3827ZM18.4565 17.307C17.9875 17.1703 18.0056 17.1837 18.4836 17.1747C19.3291 17.1591 20.1565 17.2353 20.9524 17.5177C21.2951 17.641 21.6311 17.8047 21.9625 18.0154L21.9084 18.0132L21.8723 18.0087L20.9073 18.2082C20.1655 17.7105 19.32 17.5536 18.4565 17.307ZM20.7066 18.5064L21.8903 18.2643C22.5915 18.3114 23.4145 17.7397 23.7459 17.6769C23.8203 17.6635 23.9353 17.7374 23.9736 17.8204L23.2747 18.1455L23.3649 18.327L24.1202 17.9706C24.2104 18.0379 24.2622 18.1701 24.2487 18.2419L23.437 18.4369L23.4821 18.6319L24.3411 18.4324C24.3614 18.5109 24.3547 18.6028 24.2915 18.6431C23.9105 18.8875 23.4077 18.8987 23.0041 19.0736C23.1575 19.6744 23.5543 20.3604 23.5362 20.9791C23.5317 21.0442 23.5272 21.1092 23.5205 21.1742L23.0785 20.2573L22.8914 20.3447L23.4708 21.5172C23.4258 21.7346 23.3649 21.9476 23.2972 22.1606L22.8441 20.6361L22.6479 20.6922L23.1845 22.4901C23.0357 22.9183 22.8779 23.3398 22.8012 23.7613C22.7381 24.1155 22.8012 24.1939 22.7246 23.7837C22.5126 22.6022 22.4991 20.5128 21.9422 19.7349C21.7145 19.5937 21.4597 19.4726 21.1801 19.3762C21.0291 19.3157 20.8149 19.2753 20.5308 19.2529C20.3775 19.2933 20.0889 19.3538 19.9356 19.3942C19.9852 19.1117 20.1678 18.4391 20.7066 18.5064ZM27.4075 22.591C27.1572 22.5507 26.9069 22.4991 26.6589 22.452C26.3726 22.396 26.0795 22.3399 25.7864 22.3041C25.6759 22.2929 25.5654 22.2951 25.4549 22.3153C24.9274 22.4139 24.4787 22.9273 24.1292 23.2972C23.5903 23.8666 23.0831 24.3621 22.4044 24.7791L22.0008 24.9965L17.9808 24.9494C18.5016 23.7949 20.0776 21.9588 20.9073 22.0911C21.3132 22.1539 21.8543 22.3175 22.2962 22.4251C22.3435 22.8937 22.3886 23.3689 22.472 23.8263C22.5013 23.9922 22.4901 24.324 22.7764 24.3128C23.056 24.3038 23.0244 23.9698 23.0537 23.8061C23.1484 23.2905 23.3468 22.8062 23.5137 22.3086C24.535 21.645 24.5734 19.6228 26.553 19.6027C26.6116 19.6027 26.6725 19.6071 26.7311 19.6161C27.0941 20.5644 27.3601 21.5755 27.527 22.609L27.4075 22.591ZM27.7321 24.9943H22.5419C24.2893 23.9182 24.8101 22.4453 25.7571 22.5552C26.2959 22.6179 27.0625 22.804 27.5653 22.869C27.6645 23.5617 27.7209 24.2679 27.7321 24.9741V24.9943ZM20.2422 29.3345L20.0257 29.7111L19.8364 29.7515L20.2422 29.3345ZM20.7112 27.2092L20.4338 26.7698L20.612 26.8415L20.7112 27.2092ZM23.9624 27.2092L24.0548 26.8662L24.2216 26.799L23.9624 27.2092ZM24.4967 29.3345L24.9025 29.7515L24.7132 29.7111L24.4967 29.3345ZM22.8869 32.6703C22.8689 32.1457 22.8531 31.6189 22.835 31.0921L23.0154 30.6796L23.0086 31.258L23.2138 31.2602L23.2228 30.7087L23.4212 31.2288L23.6151 31.1571L23.401 30.6056L23.8 31.0159L23.9488 30.8791L23.8812 30.8096L23.9398 30.2133L24.0976 30.7917L24.2961 30.7379L24.1427 30.1752L24.4809 30.6504L24.65 30.5361L24.2735 30.007L24.7921 30.3343L24.9025 30.164L24.4178 29.8568L24.5801 29.8927L24.6388 29.9936L24.7583 29.9286L24.9792 29.9734L25.022 29.7739L24.9634 29.7627L25.0874 29.6461L24.5892 29.135L25.1979 29.4847L25.3016 29.3121L24.632 28.9287L25.3805 29.0924L25.4256 28.8951L24.8101 28.7583L25.4414 28.7381L25.4346 28.5364L24.7289 28.561L25.4053 28.3436L25.3422 28.1508L24.6703 28.3682L25.0108 28.1396H25.013V28.1373L25.2656 27.9692L25.1506 27.8033L24.9634 27.9288L24.4629 27.8504L25.1145 27.7786L25.0919 27.5791L24.3524 27.6598L25.0198 27.3751L24.9386 27.1868L24.2667 27.476L24.8191 27.0052L24.6839 26.8528L24.1337 27.3213L24.526 26.7003L24.3524 26.5927L24.3457 26.6084L24.3163 26.5411L24.1202 26.6218L24.1495 26.5165L24.0751 26.4985L24.2104 26.3977L24.0864 26.2363L23.446 26.7026L23.9218 26.095L23.7572 25.974L23.2386 26.6353L23.525 25.8596L23.3311 25.7901L23.0898 26.4447L23.1529 25.7543L22.9478 25.7363L22.8801 26.5008L22.7268 25.7408L22.5262 25.7789L22.6772 26.5322L22.4337 26.0704L22.5262 25.9L22.3413 25.8058L22.3187 25.8484L22.312 25.8372L22.1293 25.9291L22.2037 26.0704L21.976 26.503L22.1271 25.752L21.9264 25.7139L21.7731 26.4694L21.7055 25.7072L21.5003 25.7251L21.5612 26.4156L21.3222 25.761L21.1283 25.8305L21.4146 26.6084L20.896 25.9448L20.7315 26.0659L21.2072 26.6734L20.5646 26.2071L20.4429 26.3708L20.612 26.4941L20.524 26.5165L20.5488 26.5972L20.3369 26.5142L20.2963 26.6106L20.1452 26.7003L20.5398 27.3213L19.9897 26.8528L19.8544 27.0052L20.409 27.476L19.7372 27.1868L19.6537 27.3751L20.3211 27.6598L19.5816 27.5791L19.559 27.7786L20.2129 27.8504L19.7642 27.9199L19.5861 27.8033L19.4734 27.9692L19.6537 28.0903L19.6605 28.1396L19.7146 28.1306L20.0686 28.3682L19.3967 28.1508L19.3336 28.3436L20.01 28.561L19.3043 28.5364L19.2975 28.7381L19.9288 28.7583L19.3133 28.8951L19.3584 29.0924L20.1069 28.9287L19.4373 29.3121L19.541 29.4847L20.152 29.135L19.6537 29.6461L19.7755 29.7627L19.7169 29.7739L19.7597 29.9734L19.9784 29.9286L20.1001 29.9936L20.1588 29.8927L20.3211 29.8568L19.8364 30.164L19.9468 30.3343L20.4654 30.007L20.0889 30.5361L20.2602 30.6504L20.5962 30.1752L20.4429 30.7379L20.6413 30.7917L20.7991 30.2133L20.86 30.8096L20.7901 30.8791L20.9389 31.0159L21.3357 30.6056L21.1238 31.1571L21.3177 31.2288L21.5183 30.7087L21.5251 31.2602L21.7303 31.258L21.7235 30.6796L21.8836 31.0472L21.8407 32.3385C20.5894 31.926 19.399 31.4508 18.5692 30.5899C16.6686 28.6171 16.9887 26.8057 17.7779 25.4449L17.7801 25.4426L17.7846 25.4337L17.7869 25.4314L17.7891 25.4269L17.7914 25.4202L17.7936 25.4157L17.7982 25.4113L17.8049 25.3978L17.8094 25.3933L17.841 25.3373L17.8455 25.3328L17.8478 25.3261L17.8523 25.3216L17.8861 25.2655L17.8883 25.2588L17.9199 25.2117L17.9244 25.2028L17.9267 25.2005L18.3911 25.205L27.7321 25.3149H27.7344C27.7186 28.3301 26.8934 31.3342 25.252 33.5783C24.526 33.2039 23.7098 32.9326 22.8869 32.6703ZM21.7483 30.0877C21.8047 29.8703 21.8633 29.6752 21.9377 29.4892L21.9016 30.5742L21.7348 30.1953L21.7303 30.1527L21.7483 30.0877ZM20.9682 29.608C21.1801 29.3457 21.4169 29.1349 21.6964 28.9713L21.3177 29.3434L21.462 29.4892L21.9377 29.0184C21.7438 29.3502 21.6446 29.673 21.5431 30.0698L21.5409 30.0743L21.5251 30.1169L21.4913 30.1527L21.0448 30.6146L20.9569 29.7268L20.9547 29.6618L20.9682 29.608ZM20.7811 28.8076L20.8104 28.7673L20.8509 28.7449C21.0719 28.6754 21.3064 28.6373 21.5386 28.6261L21.0246 28.7964L21.0899 28.987L21.507 28.8502C21.2297 29.0251 20.9885 29.2515 20.772 29.525L20.7517 29.5452L20.7337 29.5676L20.2918 29.6573L20.7811 28.8076ZM20.9096 27.9445L20.9682 27.9333L21.02 27.9513L21.5972 28.227L21.0223 28.1306L20.9862 28.3301L21.5454 28.4243C21.2816 28.4355 21.0223 28.4781 20.7743 28.5566L20.7472 28.561L20.7179 28.5543L20.0122 28.0858L20.9096 27.9445ZM20.7856 26.6936L20.7608 26.6017L21.0133 26.7855L20.7856 26.6936ZM22.0414 27.9849L21.4777 27.4177L21.3312 27.5589L22.073 28.3077L22.0639 28.3055C21.7821 28.0678 21.4011 27.884 21.0967 27.7652L21.0606 27.7181L20.8509 26.938L21.6175 27.2451L21.6671 27.2675L21.6942 27.3056C21.843 27.5231 21.9557 27.7495 22.0414 27.9849ZM22.7809 27.2361C22.6502 27.4312 22.5487 27.6329 22.4675 27.8437V27.1083H22.2624V28.0006C22.1722 27.7226 22.0459 27.4603 21.8746 27.207L21.8655 27.1532L22.3187 26.2901L22.7877 27.1823L22.7899 27.2115L22.7809 27.2361ZM22.7043 33.3832L22.711 33.7061L22.0166 33.1927L22.0279 32.8855L22.7043 33.3832ZM22.684 32.7353L22.693 33.0604L22.0369 32.5762L22.0482 32.269L22.684 32.7353ZM22.6614 32.0897L22.6727 32.4125L22.0594 31.9597L22.0685 31.6525L22.6614 32.0897ZM22.6411 31.4396L22.6502 31.7646L22.0797 31.3409L22.091 31.036L22.6411 31.4396ZM22.6186 30.7917L22.6299 31.1145L22.1023 30.7267L22.1113 30.4173L22.6186 30.7917ZM22.5983 30.1438L22.6073 30.4666L22.1226 30.1079L22.1338 29.7985L22.5983 30.1438ZM22.1654 28.8727L22.1744 28.5924L22.188 28.5745L22.5622 28.8525L22.569 29.1731L22.1654 28.8727ZM22.578 29.4959L22.587 29.8187L22.1429 29.4914L22.1541 29.182L22.578 29.4959ZM22.4383 34.4526H22.0099L21.9738 34.4279L21.9851 34.1185L22.4383 34.4526ZM21.9941 33.8092L22.0076 33.502L22.7201 34.0311L22.7291 34.3495L21.9941 33.8092ZM23.8158 26.9626L23.6129 27.7181L23.6084 27.7495L23.5791 27.7652C23.304 27.8728 22.9726 28.0297 22.702 28.2337L23.3468 27.5051L23.1913 27.3729L22.6231 28.0118C22.7065 27.7764 22.8147 27.5522 22.9613 27.3348L22.9906 27.2922L23.0357 27.2742L23.8158 26.9626ZM23.8812 26.716L23.6399 26.8146L23.9083 26.6196L23.8812 26.716ZM24.021 28.5543L23.9917 28.5633L23.9669 28.5566C23.7144 28.4714 23.4506 28.431 23.1868 28.4243L23.7437 28.3301L23.7076 28.1306L23.0537 28.2405C23.2499 28.1261 23.4596 28.0297 23.6332 27.9602L23.6896 27.9356L23.764 27.9445L24.7154 28.0925L24.021 28.5543ZM23.2364 28.8435L23.6445 28.978L23.7076 28.7875L23.2161 28.6261C23.446 28.6373 23.6715 28.6731 23.888 28.7426L23.9331 28.765L23.9579 28.8076L24.4471 29.6573L24.0052 29.5676V29.5654L23.9984 29.5564C23.782 29.2605 23.5295 29.0251 23.2364 28.8435ZM23.0041 30.1953L22.8193 30.619C22.8057 30.2267 22.7945 29.8344 22.7832 29.4398C22.8689 29.664 22.9252 29.8972 22.9974 30.1572L23.0041 30.1707V30.1953ZM22.8621 29.1103L23.2476 29.5026L23.3964 29.3636L22.9658 28.9242C23.2792 29.0879 23.5475 29.3098 23.7752 29.599L23.791 29.6573L23.782 29.7268L23.6941 30.6146L23.2476 30.1527L23.198 30.1191L23.1777 30.0474C23.0853 29.7021 23.0109 29.404 22.8621 29.1103ZM17.983 37.2751C18.8263 35.5063 18.1837 33.7262 17.3224 32.0336C16.8287 31.0629 16.2605 30.1191 15.8637 29.2291C15.6044 28.6462 15.3293 27.8952 15.4353 27.2384C15.5119 26.7676 15.796 26.3237 16.2019 26.0748C16.5491 25.8596 16.8783 25.7027 17.2638 25.5615H17.2661L17.3044 25.548L17.4554 25.4942C16.4544 27.3639 16.8309 29.1529 18.3821 30.7625C19.2659 31.6817 20.524 32.1726 21.8317 32.5986L21.7596 34.6544H22.941L22.9342 34.4459C22.9252 33.9459 22.9117 33.4415 22.8937 32.9371C23.667 33.1815 24.4246 33.4393 25.0987 33.7823C23.4776 35.8896 21.1102 37.2773 17.9875 37.2773H17.983V37.2751ZM15.0723 23.3869V24.9248H14.0442V24.0886C14.0442 23.8554 13.8863 23.6469 13.6721 23.6469C13.4557 23.6469 13.3001 23.8554 13.3001 24.0886V24.9248H12.2991V23.3869H15.0723ZM15.0723 23.1268H12.2991V21.9342H15.0723V23.1268ZM14.1479 20.5779H13.2235L13.255 20.0622H14.1163L14.1479 20.5779ZM14.3936 19.8134H12.9597V19.3471H14.3936V19.8134ZM13.5414 19.0982H13.2077V18.7889H13.5414V19.0982ZM14.1434 18.7889V19.0982H13.8164V18.7889H14.1434ZM13.4647 17.733C13.4647 17.6231 13.5549 17.5334 13.6676 17.5334C13.7804 17.5334 13.8705 17.6231 13.8705 17.733V17.7531C13.8052 17.7397 13.7398 17.7352 13.6766 17.7352C13.6068 17.7352 13.5369 17.7397 13.467 17.7554L13.4647 17.733ZM13.6766 17.984C14.0419 17.984 14.344 18.206 14.344 18.475V18.54H13.0093V18.475C13.0093 18.206 13.3091 17.984 13.6766 17.984ZM13.0904 21.2145V20.8267H13.4873V21.2145H13.8841V20.8267H14.2809V21.2145H14.6777V20.8267H15.0723V21.6719H12.2991V20.8267H12.6936V21.2145H13.0904ZM8.23843 25.2005H8.49546H8.48419C11.1965 25.2005 14.7228 25.2005 17.5501 25.2005C17.2322 25.2969 16.9527 25.4045 16.7046 25.5189L16.6325 25.5547C16.5558 25.5906 16.4814 25.6265 16.4138 25.6646C16.3326 25.7117 16.2537 25.7565 16.1816 25.8058C15.4488 26.2788 15.1625 26.8595 15.1557 27.5163C15.1534 27.8123 15.2053 28.1239 15.2977 28.4489L15.3 28.4512L15.3316 28.5543L15.3361 28.5655C15.3721 28.6799 15.4127 28.7987 15.4578 28.9175C15.6066 29.3053 15.7893 29.682 15.9786 30.0541C16.1162 30.3209 16.2582 30.5854 16.4003 30.8522C17.0248 32.009 17.7125 33.2218 17.9921 34.5176C18.1566 35.2843 18.1657 36.0712 17.8928 36.8245V36.8289L17.8883 36.8401C17.859 36.9209 17.8252 37.0038 17.7891 37.0845C17.7621 37.145 17.7328 37.2078 17.7012 37.2683H17.6877C17.4464 37.2616 17.2029 37.2459 16.9639 37.2213C15.6675 37.0867 14.4094 36.681 13.2956 35.9927C9.70395 33.7666 8.11443 29.2067 8.23843 25.214V25.2005ZM18.8826 13.1619C18.9119 13.1641 18.948 13.1686 18.9886 13.1753C19.7214 13.2493 20.4068 13.4062 21.0494 13.6326C21.0516 13.6326 21.0539 13.6326 21.0561 13.6349C21.117 13.6551 21.1824 13.6797 21.2545 13.7089C21.2658 13.7133 21.2771 13.7178 21.2883 13.7223C21.3537 13.747 21.4281 13.7784 21.5093 13.812V13.8097C21.5251 13.8165 21.5409 13.8254 21.5567 13.8322C21.5769 13.8411 21.5972 13.8501 21.6198 13.8568C21.6333 13.8636 21.6491 13.8725 21.6694 13.8815C22.321 14.1752 22.9207 14.5451 23.4686 14.9777C23.4754 14.9822 23.4821 14.9867 23.4844 14.9912C23.5701 15.0562 23.6986 15.1638 23.8406 15.2894C23.8406 15.2894 23.8406 15.2916 23.8429 15.2916C23.8767 15.323 23.915 15.3544 23.9488 15.388C23.9624 15.3992 23.9714 15.4104 23.9827 15.4194C24.5373 15.9328 25.0311 16.5156 25.4617 17.1568H25.464C25.4662 17.1635 25.4707 17.168 25.4752 17.1725C25.482 17.1837 25.491 17.1949 25.4955 17.2061C25.5429 17.2801 25.5902 17.3519 25.6218 17.4012C25.606 17.3743 25.588 17.3451 25.5699 17.3182L25.624 17.4012H25.6218L25.6308 17.4146C25.6376 17.4236 25.6421 17.4326 25.6466 17.437V17.4393C26.0231 18.0356 26.3523 18.679 26.6251 19.3516L26.5507 19.3493C25.4121 19.3628 24.8462 19.9501 24.4246 20.6003C24.411 20.6227 24.2983 20.8245 24.2194 20.9478C24.0323 21.2706 23.8609 21.5844 23.6625 21.8221C23.7008 21.6674 23.7369 21.5082 23.7594 21.3468C23.7685 21.2728 23.7775 21.2011 23.7842 21.1293C23.7865 21.0329 23.791 20.8648 23.791 20.8648C23.7752 20.2887 23.4911 19.7708 23.3175 19.2283C23.6873 19.1117 24.0683 19.087 24.4313 18.8561C24.6523 18.7126 24.65 18.3876 24.5102 18.1903C24.5102 18.1903 24.4899 18.0692 24.4674 18.0199C24.4539 17.9863 24.4155 17.9302 24.3862 17.8854C24.3389 17.8226 24.2803 17.7688 24.2149 17.733C24.1315 17.5402 23.9083 17.39 23.6986 17.4303C23.5272 17.4617 23.3243 17.5648 23.1665 17.6388C22.959 17.7374 22.7516 17.8316 22.5329 17.9056C22.472 17.9258 22.4044 17.9482 22.339 17.9639C22.1023 17.7957 21.8565 17.6455 21.595 17.5177V17.5155C21.5138 17.4751 21.4214 17.4348 21.2748 17.3743C21.1982 17.3406 21.1192 17.3093 21.0403 17.2824C20.506 17.0896 19.9558 16.9887 19.3967 16.9483L19.399 16.9461C19.2141 16.9304 19.0337 16.9281 18.7767 16.9214C18.6752 16.9192 18.5783 16.9214 18.4791 16.9214C18.2761 16.9259 17.8996 16.8766 17.859 17.1613C17.8207 17.4415 18.1905 17.4931 18.3844 17.5491C18.3911 17.5514 18.4001 17.5536 18.4069 17.5559C18.5625 17.5962 18.4565 17.5671 18.957 17.7038L18.9593 17.7061C19.5072 17.8518 20.028 17.9975 20.5015 18.2598C20.2174 18.3069 20.0122 18.5109 19.886 18.7889L19.8318 18.9189C19.7687 19.0758 19.7236 19.2552 19.6943 19.4054V19.4031L19.6402 19.7192L20.0303 19.6116C20.1926 19.569 20.3887 19.5466 20.5533 19.5063C20.7224 19.5242 20.9321 19.5488 21.0809 19.6094L21.0877 19.6116H21.0944C21.2275 19.6587 21.356 19.7147 21.4845 19.773C21.4935 19.7775 21.5048 19.782 21.5138 19.7865C21.6807 19.8627 21.7438 19.9098 21.7776 19.9546L21.7799 19.9524C21.7844 19.9613 21.7889 19.9681 21.7934 19.977C21.7956 19.9815 21.7956 19.9838 21.7979 19.986C21.8002 19.9882 21.8002 19.9905 21.8024 19.9927C22.0053 20.3626 22.1181 20.9791 22.1902 21.4925V21.4948C22.1902 21.506 22.1925 21.5172 22.1947 21.5284C22.1947 21.5306 22.1947 21.5329 22.1947 21.5351C22.2015 21.5934 22.2128 21.6808 22.224 21.775H22.2263C22.2353 21.8669 22.2466 21.9566 22.2556 22.035L22.2691 22.1606C22.1203 22.1247 21.9805 22.0844 21.8746 22.0552C21.834 22.044 21.7956 22.035 21.7708 22.0283C21.7686 22.0283 21.7663 22.0261 21.7641 22.0261L21.7415 22.0194C21.613 21.988 21.3515 21.923 21.2117 21.8916C21.1238 21.8714 21.0381 21.8557 20.9502 21.8423C20.5443 21.7772 20.1092 22.035 19.8025 22.2682C19.7056 22.3399 19.6109 22.4184 19.5162 22.5014C19.2096 22.7883 19.0405 22.9609 18.8691 23.1627C18.833 23.203 18.8015 23.2412 18.7676 23.2815C18.6053 23.4788 18.4655 23.6649 18.31 23.8778C18.2446 23.972 18.1814 24.0662 18.1183 24.1626C18.0371 24.2881 17.9718 24.4047 17.9222 24.4921C17.8387 24.6445 17.7621 24.797 17.7012 24.9472H16.9211L16.5874 24.9494H15.3293V20.5779H14.4049L14.3733 20.0622H14.6484V19.0982H14.4094V18.7889H14.5988V18.475C14.5988 18.1656 14.3846 17.9415 14.114 17.8249L14.1253 17.733C14.1253 17.5334 13.9946 17.3653 13.8119 17.307C13.7691 17.2958 13.7262 17.2868 13.6857 17.2868C13.6406 17.2868 13.6045 17.2913 13.5729 17.2936C13.3678 17.3362 13.2122 17.5155 13.2122 17.733L13.2235 17.8316C12.9597 17.9504 12.7545 18.1724 12.7545 18.475V18.7889H12.9439V19.0982H12.7071V20.0622H12.998L12.9664 20.5779H12.0443V24.9517H8.24294C8.24294 24.8934 8.24745 24.8329 8.24745 24.7746C8.24069 24.7253 8.23843 24.6535 8.24294 24.5504C8.25647 24.3128 8.26549 24.25 8.29029 23.9653H8.28803C8.29254 23.9182 8.29705 23.8756 8.29931 23.8308C8.30382 23.7949 8.30607 23.7613 8.30832 23.7232C8.34891 23.2165 8.37371 23.0641 8.44811 22.5978C8.46164 22.5215 8.47291 22.4475 8.48644 22.3758C8.54732 22.0216 8.60819 21.7526 8.66681 21.4993C8.69613 21.3692 8.72318 21.2616 8.75249 21.1518C8.75475 21.1406 8.75926 21.1293 8.76151 21.1137C8.79533 20.9881 8.83366 20.8536 8.88552 20.672C8.94188 20.4635 9.00501 20.2819 9.07265 20.0869C9.12 19.9457 9.1696 19.8089 9.22146 19.6721C9.22822 19.6587 9.23048 19.6475 9.23499 19.634C9.38379 19.2283 9.40859 19.1633 9.59348 18.7844C9.60475 18.7642 9.61377 18.744 9.62504 18.7239C9.82796 18.2912 10.0534 17.8764 10.3014 17.4774L10.3037 17.4729C10.4457 17.2061 10.705 16.8676 10.9463 16.5605C10.9846 16.5112 11.0229 16.4596 11.0613 16.4125C11.0725 16.3991 11.0815 16.3856 11.0928 16.3744C11.3656 16.0247 11.5956 15.7781 11.9067 15.4956C11.9135 15.4889 11.9203 15.4844 11.9293 15.4754C12.3284 15.0988 12.7635 14.758 13.2302 14.4599C13.2392 14.4532 13.2483 14.4464 13.2573 14.4419C13.5684 14.2357 13.4309 14.3343 13.7984 14.1281C13.8548 14.0945 13.8999 14.072 13.9404 14.0563C14.4297 13.8075 14.9505 13.6035 15.5052 13.4511C15.5142 13.4488 15.5255 13.4443 15.5345 13.4421C15.796 13.3659 16.0057 13.3255 16.2109 13.2874C16.7745 13.1798 17.3653 13.126 17.9875 13.126C18.0101 13.126 18.0484 13.126 18.098 13.126C18.2198 13.1282 18.328 13.1327 18.4745 13.1394C18.5422 13.1417 18.594 13.1439 18.6008 13.1439C18.682 13.1484 18.7722 13.1551 18.8826 13.1619ZM26.4267 39.8778C24.5328 40.8777 22.5803 41.8193 20.754 42.9267C19.8273 43.4872 18.8263 44.1575 17.9921 44.9534C17.1578 44.1575 16.1568 43.4872 15.2301 42.9267C13.4016 41.8193 11.4513 40.8777 9.5574 39.8778C7.16522 38.6179 2.88138 36.3559 2.03363 33.6366C1.92316 33.2891 1.86904 32.9326 1.86904 32.5694C1.86904 30.3343 2.72581 28.2337 3.57581 26.1959C4.43484 24.1401 5.44492 21.8579 5.18789 19.587C4.97144 17.6792 3.92078 16.213 2.50937 15.045L4.62423 12.4108L9.82571 17.5088C6.52715 23.0327 7.31628 31.8834 12.281 35.7484C13.9314 37.0352 15.8862 37.6427 17.9898 37.6427C21.595 37.6427 24.2397 35.8829 25.9262 33.298L30.334 37.6226C28.9519 38.5619 27.4729 39.3263 26.4267 39.8778ZM32.6879 26.0838C31.8536 24.0841 30.8481 21.8288 31.0961 19.6206C31.3013 17.8204 32.2843 16.417 33.6709 15.2714L33.8941 15.0876L29.9169 10.1376L29.8042 10.1174C21.976 8.71181 14.0081 8.87546 6.17543 10.1309L6.05819 10.1488L2.09 15.0876L2.31321 15.2714C3.69982 16.417 4.68285 17.8204 4.88577 19.6206C5.13603 21.8288 4.13046 24.0841 3.29624 26.0838C2.4282 28.162 1.56692 30.2873 1.56692 32.5694C1.56692 32.9618 1.6278 33.3496 1.74278 33.7217C2.62435 36.5465 6.90142 38.813 9.41311 40.1401C11.307 41.1378 13.2415 42.0704 15.0723 43.1778C16.0237 43.7562 16.9775 44.3951 17.7801 45.1641L17.9921 45.3659L18.204 45.1641C19.0089 44.3951 19.9604 43.7562 20.9141 43.1778C22.7426 42.0704 24.6771 41.1378 26.5687 40.1401C29.2969 38.7009 34.4172 36.0645 34.4172 32.5694C34.4172 30.2873 33.5559 28.162 32.6879 26.0838Z" fill="#3F4446"/>
<defs>
<radialGradient id="paint0_radial_5246_4347" cx="0" cy="0" r="1" gradientUnits="userSpaceOnUse" gradientTransform="translate(30.0023 13.6822) scale(19.0616 17.9517)">
<stop stop-color="#20A970"/>
<stop offset="0.61177" stop-color="#239961"/>
<stop offset="1" stop-color="#268A52"/>
</radialGradient>
<radialGradient id="paint1_radial_5246_4347" cx="0" cy="0" r="1" gradientUnits="userSpaceOnUse" gradientTransform="translate(13.6476 24.2243) rotate(-90) scale(11.7757 12.2429)">
<stop stop-color="#FFFF8F"/>
<stop offset="0.514466" stop-color="#A1DAE6"/>
<stop offset="0.835794" stop-color="#63C5ED"/>
</radialGradient>
<radialGradient id="paint2_radial_5246_4347" cx="0" cy="0" r="1" gradientTransform="matrix(1.2407 2.80374 -9.90307 4.33259 23.5732 19.6262)" gradientUnits="userSpaceOnUse">
<stop stop-color="#2CA97B"/>
<stop offset="0.61177" stop-color="#299669"/>
<stop offset="1" stop-color="#258356"/>
</radialGradient>
<linearGradient id="paint3_linear_5246_4347" x1="19.2872" y1="20.0748" x2="26.2609" y2="24.034" gradientUnits="userSpaceOnUse">
<stop stop-color="#2CA97B"/>
<stop offset="0.61177" stop-color="#299669"/>
<stop offset="1" stop-color="#258356"/>
</linearGradient>
<linearGradient id="paint4_linear_5246_4347" x1="14.6628" y1="26.9159" x2="23.1996" y2="33.3551" gradientUnits="userSpaceOnUse">
<stop stop-color="#FAE1C6"/>
<stop offset="0.31" stop-color="#F9D3A5"/>
<stop offset="0.625222" stop-color="#F5C491"/>
</linearGradient>
<linearGradient id="paint5_linear_5246_4347" x1="13.0837" y1="36.3364" x2="13.0837" y2="26.0187" gradientUnits="userSpaceOnUse">
<stop stop-color="#42929D"/>
<stop offset="0.845" stop-color="#43B5BF"/>
<stop offset="1" stop-color="#65C3C8"/>
</linearGradient>
<linearGradient id="paint6_linear_5246_4347" x1="17.1442" y1="25.7944" x2="26.0222" y2="31.8976" gradientUnits="userSpaceOnUse">
<stop stop-color="#DDA77A"/>
<stop offset="0.312088" stop-color="#BB825B"/>
</linearGradient>
<linearGradient id="paint7_linear_5246_4347" x1="7.44417" y1="5.83177" x2="27.0695" y2="5.89052" gradientUnits="userSpaceOnUse">
<stop stop-color="#C99736"/>
<stop offset="0.25" stop-color="#D2A756"/>
<stop offset="0.49" stop-color="#CDA150"/>
<stop offset="1" stop-color="#E6CFA2"/>
</linearGradient>
<linearGradient id="paint8_linear_5246_4347" x1="8.2337" y1="3.14019" x2="27.6287" y2="2.82985" gradientUnits="userSpaceOnUse">
<stop stop-color="#9A7D3C"/>
<stop offset="0.392914" stop-color="#9E803E"/>
<stop offset="1" stop-color="#BC984D"/>
</linearGradient>
<linearGradient id="paint9_linear_5246_4347" x1="7.21859" y1="1.57009" x2="27.9979" y2="1.36208" gradientUnits="userSpaceOnUse">
<stop stop-color="#C99836"/>
<stop offset="0.2" stop-color="#D4AD5E"/>
<stop offset="0.5" stop-color="#D2B87F"/>
<stop offset="1" stop-color="#EED9AB"/>
</linearGradient>
<linearGradient id="paint10_linear_5246_4347" x1="12.2942" y1="22.9906" x2="15.0011" y2="22.9906" gradientUnits="userSpaceOnUse">
<stop stop-color="#EAEBEB"/>
<stop offset="0.155" stop-color="#DCDBD9"/>
<stop offset="0.5" stop-color="#C2C1C1"/>
</linearGradient>
<linearGradient id="paint11_linear_5246_4347" x1="12.9709" y1="19.0654" x2="14.4372" y2="19.0654" gradientUnits="userSpaceOnUse">
<stop stop-color="#EAEBEB"/>
<stop offset="0.23" stop-color="#DCDBD9"/>
<stop offset="0.515" stop-color="#C2C1C1"/>
</linearGradient>
</defs>
</svg>
